SourceDevanagariSans_0.ufo
<glyph name="L" format="1">
	<advance width="460"/>
	<outline>
		<contour>
			<point x="100" y="0" type="line"/>
			<point x="442" y="0" type="line"/>
			<point x="442" y="28" type="line"/>
			<point x="132" y="28" type="line"/>
			<point x="132" y="660" type="line"/>
			<point x="100" y="660" type="line"/>
		</contour>
		<contour>
			<point name="aboveUC" x="116" y="682" type="move"/>
		</contour>
		<contour>
			<point name="belowLC" x="288" y="-22" type="move"/>
		</contour>
	</outline>
</glyph>
<glyph name="T" format="1">
	<advance width="520"/>
	<outline>
		<contour>
			<point x="244" y="0" type="line"/>
			<point x="276" y="0" type="line"/>
			<point x="276" y="632" type="line"/>
			<point x="490" y="632" type="line"/>
			<point x="490" y="660" type="line"/>
			<point x="30" y="660" type="line"/>
			<point x="30" y="632" type="line"/>
			<point x="244" y="632" type="line"/>
		</contour>
		<contour>
			<point name="aboveUC" x="258" y="682" type="move"/>
		</contour>
		<contour>
			<point name="belowLC" x="260" y="-22" type="move"/>
		</contour>
		<contour>
			<point name="baseLC" x="260" y="0" type="move"/>
		</contour>
	</outline>
</glyph>
<glyph name="ZWJ" format="1">
  <advance width="0"/>
  <outline>
    <contour>
      <point x="-116" y="785" type="line"/>
      <point x="-116" y="858" type="line"/>
      <point x="117" y="858" type="line"/>
      <point x="117" y="785" type="line"/>
      <point x="151" y="785" type="line"/>
      <point x="151" y="894" type="line"/>
      <point x="-150" y="894" type="line"/>
      <point x="-150" y="785" type="line"/>
    </contour>
  </outline>
</glyph>
<glyph name="danda" format="1">
  <advance width="294"/>
  <outline>
    <contour>
      <point x="126" y="-40" type="line"/>
      <point x="168" y="-40" type="line"/>
      <point x="168" y="590" type="line"/>
      <point x="126" y="590" type="line"/>
    </contour>
  </outline>
</glyph>
<glyph name="dandadbl" format="1">
  <advance width="468"/>
  <outline>
    <contour>
      <point x="126" y="-40" type="line"/>
      <point x="168" y="-40" type="line"/>
      <point x="168" y="590" type="line"/>
      <point x="126" y="590" type="line"/>
    </contour>
    <contour>
      <point x="300" y="-40" type="line"/>
      <point x="342" y="-40" type="line"/>
      <point x="342" y="590" type="line"/>
      <point x="300" y="590" type="line"/>
    </contour>
  </outline>
</glyph>
<glyph name="dotlessi" format="1">
	<advance width="222"/>
	<outline>
		<contour>
			<point x="96" y="0" type="line"/>
			<point x="126" y="0" type="line"/>
			<point x="126" y="478" type="line"/>
			<point x="96" y="478" type="line"/>
		</contour>
		<contour>
			<point name="aboveLC" x="112" y="502" type="move"/>
		</contour>
		<contour>
			<point name="belowLC" x="110" y="-22" type="move"/>
		</contour>
		<contour>
			<point name="ogonekLC" x="130" y="0" type="move"/>
		</contour>
	</outline>
</glyph>
<glyph name="dvA" format="1">
	<advance width="698"/>
	<outline>
		<contour>
			<point x="280" y="335" type="curve"/>
			<point x="290" y="310" type="line"/>
			<point x="360.028343805" y="298.995545974"/>
			<point x="412" y="244.933333333"/>
			<point x="412" y="188" type="curve" smooth="yes"/>
			<point x="412" y="124"/>
			<point x="375" y="74"/>
			<point x="288" y="74" type="curve" smooth="yes"/>
			<point x="187.675675676" y="74"/>
			<point x="116.714206577" y="161.716826126"/>
			<point x="56" y="314" type="curve"/>
			<point x="32" y="301" type="line"/>
			<point x="92.1963082053" y="155.936765472"/>
			<point x="162" y="46"/>
			<point x="292" y="46" type="curve" smooth="yes"/>
			<point x="386" y="46"/>
			<point x="442" y="107.114285714"/>
			<point x="442" y="184" type="curve" smooth="yes"/>
			<point x="442" y="270"/>
			<point x="355" y="326"/>
		</contour>
		<contour>
			<point x="575" y="335" type="line"/>
			<point x="560.07726278" y="299.88767713"/>
			<point x="508" y="296"/>
			<point x="482" y="296" type="curve" smooth="yes"/>
			<point x="427" y="296"/>
			<point x="388.005939078" y="307.483059085"/>
			<point x="315" y="345" type="curve"/>
			<point x="319" y="320" type="line"/>
			<point x="384" y="283"/>
			<point x="448" y="267"/>
			<point x="491" y="267" type="curve" smooth="yes"/>
			<point x="526" y="267"/>
			<point x="554.775551771" y="278.162219633"/>
			<point x="575" y="292" type="curve"/>
		</contour>
		<contour>
			<point x="236" y="294" type="line"/>
			<point x="335.97425024" y="319.525340487"/>
			<point x="394" y="369.915492958"/>
			<point x="394" y="434" type="curve" smooth="yes"/>
			<point x="394" y="508"/>
			<point x="344" y="560"/>
			<point x="268" y="560" type="curve" smooth="yes"/>
			<point x="216" y="560"/>
			<point x="184.055776649" y="540.627759089"/>
			<point x="146" y="518" type="curve"/>
			<point x="162" y="493" type="line"/>
			<point x="195.254776351" y="515.862658741"/>
			<point x="223" y="531"/>
			<point x="272" y="531" type="curve" smooth="yes"/>
			<point x="335" y="531"/>
			<point x="364" y="491.733333333"/>
			<point x="364" y="438" type="curve" smooth="yes"/>
			<point x="364" y="375.538461538"/>
			<point x="322.648409075" y="345.625166663"/>
			<point x="226" y="322" type="curve"/>
		</contour>
		<contour>
			<point x="574" y="0" type="line"/>
			<point x="602" y="0" type="line"/>
			<point x="602" y="531" type="line"/>
			<point x="574" y="531" type="line"/>
		</contour>
		<contour>
			<point x="472" y="550" type="line"/>
			<point x="472" y="524" type="line"/>
			<point x="706" y="524" type="line"/>
			<point x="706" y="550" type="line"/>
		</contour>
	</outline>
</glyph>
<glyph name="dvAisign" format="1">
	<outline>
		<contour>
			<point x="-434" y="714" type="curve" smooth="yes"/>
			<point x="-462" y="714"/>
			<point x="-479" y="708"/>
			<point x="-511" y="695" type="curve"/>
			<point x="-488" y="650" type="line"/>
			<point x="-462" y="659"/>
			<point x="-440" y="667"/>
			<point x="-421" y="667" type="curve" smooth="yes"/>
			<point x="-329" y="667"/>
			<point x="-242" y="634"/>
			<point x="-141" y="548" type="curve"/>
			<point x="-101" y="548" type="line"/>
			<point x="-210" y="656"/>
			<point x="-308" y="714"/>
		</contour>
		<contour>
			<point x="-377" y="846" type="curve" smooth="yes"/>
			<point x="-406" y="846"/>
			<point x="-423" y="840"/>
			<point x="-455" y="827" type="curve"/>
			<point x="-432" y="782" type="line"/>
			<point x="-406" y="790"/>
			<point x="-383" y="799"/>
			<point x="-364" y="799" type="curve" smooth="yes"/>
			<point x="-314" y="799"/>
			<point x="-257" y="763"/>
			<point x="-131" y="548" type="curve"/>
			<point x="-94" y="548" type="line"/>
			<point x="-229" y="780"/>
			<point x="-287" y="846"/>
		</contour>
	</outline>
</glyph>
<glyph name="dvAasign" format="1">
  <advance width="214"/>
  <outline>
    <contour>
      <point x="86" y="0" type="line"/>
      <point x="128" y="0" type="line"/>
      <point x="128" y="529" type="line"/>
      <point x="86" y="529" type="line"/>
    </contour>
    <contour>
      <point x="-10" y="550" type="line"/>
      <point x="-10" y="510" type="line"/>
      <point x="224" y="510" type="line"/>
      <point x="224" y="550" type="line"/>
    </contour>
  </outline>
</glyph>
<glyph name="dvAi" format="1">
  <advance width="451"/>
  <outline>
    <contour>
      <point x="91" y="520" type="line"/>
      <point x="47" y="520" type="line"/>
      <point x="47" y="376" type="line" smooth="yes"/>
      <point x="47" y="264"/>
      <point x="70" y="207"/>
      <point x="156" y="164" type="curve" smooth="yes"/>
      <point x="276" y="103" type="line" smooth="yes"/>
      <point x="359" y="62"/>
      <point x="368" y="26"/>
      <point x="368" y="-9" type="curve" smooth="yes"/>
      <point x="368" y="-43"/>
      <point x="348" y="-56"/>
      <point x="333" y="-70" type="curve"/>
      <point x="363" y="-101" type="line"/>
      <point x="393" y="-73"/>
      <point x="406" y="-55"/>
      <point x="406" y="-15" type="curve" smooth="yes"/>
      <point x="406" y="50"/>
      <point x="374" y="97"/>
      <point x="295" y="139" type="curve" smooth="yes"/>
      <point x="175" y="199" type="line" smooth="yes"/>
      <point x="115" y="229"/>
      <point x="91" y="261"/>
      <point x="91" y="365" type="curve" smooth="yes"/>
    </contour>
    <contour>
      <point x="335" y="530" type="line"/>
      <point x="335" y="372" type="line" smooth="yes"/>
      <point x="335" y="316"/>
      <point x="316" y="288"/>
      <point x="278" y="267" type="curve"/>
      <point x="303" y="227" type="line"/>
      <point x="354" y="256"/>
      <point x="379" y="298"/>
      <point x="379" y="364" type="curve" smooth="yes"/>
      <point x="379" y="530" type="line"/>
    </contour>
    <contour>
      <point x="-10" y="550" type="line"/>
      <point x="-10" y="510" type="line"/>
      <point x="458" y="510" type="line"/>
      <point x="458" y="550" type="line"/>
    </contour>
    <contour>
      <point x="64" y="790" type="curve" smooth="yes"/>
      <point x="36" y="790"/>
      <point x="19" y="784"/>
      <point x="-13" y="771" type="curve"/>
      <point x="9" y="725" type="line"/>
      <point x="36" y="736"/>
      <point x="56" y="742"/>
      <point x="77" y="742" type="curve" smooth="yes"/>
      <point x="173" y="742"/>
      <point x="274" y="606"/>
      <point x="319" y="548" type="curve"/>
      <point x="366" y="548" type="line"/>
      <point x="276" y="662"/>
      <point x="188" y="790"/>
    </contour>
  </outline>
</glyph>
<glyph name="dvAnusvara" format="1">
  <advance width="0"/>
  <outline>
    <contour>
      <point x="-110" y="720" type="curve" smooth="yes"/>
      <point x="-132" y="720"/>
      <point x="-150" y="702"/>
      <point x="-150" y="678" type="curve" smooth="yes"/>
      <point x="-150" y="654"/>
      <point x="-132" y="636"/>
      <point x="-110" y="636" type="curve" smooth="yes"/>
      <point x="-88" y="636"/>
      <point x="-70" y="654"/>
      <point x="-70" y="678" type="curve" smooth="yes"/>
      <point x="-70" y="702"/>
      <point x="-86" y="720"/>
    </contour>
  </outline>
</glyph>
<glyph name="dvAu" format="1">
  <advance width="912"/>
  <outline>
    <contour>
      <point x="280" y="345" type="curve"/>
      <point x="290" y="308" type="line"/>
      <point x="354" y="298"/>
      <point x="402" y="244"/>
      <point x="402" y="188" type="curve" smooth="yes"/>
      <point x="402" y="132"/>
      <point x="368" y="88"/>
      <point x="288" y="88" type="curve" smooth="yes"/>
      <point x="192" y="88"/>
      <point x="124" y="172"/>
      <point x="66" y="318" type="curve"/>
      <point x="32" y="301" type="line"/>
      <point x="93" y="154"/>
      <point x="162" y="42"/>
      <point x="292" y="42" type="curve" smooth="yes"/>
      <point x="388" y="42"/>
      <point x="446" y="105"/>
      <point x="446" y="184" type="curve" smooth="yes"/>
      <point x="446" y="276"/>
      <point x="357" y="336"/>
    </contour>
    <contour>
      <point x="575" y="336" type="line"/>
      <point x="558" y="296"/>
      <point x="508" y="290"/>
      <point x="482" y="290" type="curve" smooth="yes"/>
      <point x="434" y="290"/>
      <point x="399" y="300"/>
      <point x="335" y="333" type="curve"/>
      <point x="319" y="306" type="line"/>
      <point x="386" y="267"/>
      <point x="448" y="245"/>
      <point x="491" y="245" type="curve" smooth="yes"/>
      <point x="526" y="245"/>
      <point x="556" y="253"/>
      <point x="575" y="266" type="curve"/>
    </contour>
    <contour>
      <point x="246" y="291" type="line"/>
      <point x="342" y="315"/>
      <point x="398" y="369"/>
      <point x="398" y="434" type="curve" smooth="yes"/>
      <point x="398" y="508"/>
      <point x="346" y="560"/>
      <point x="268" y="560" type="curve" smooth="yes"/>
      <point x="216" y="560"/>
      <point x="183" y="544"/>
      <point x="146" y="522" type="curve"/>
      <point x="170" y="480" type="line"/>
      <point x="200" y="501"/>
      <point x="227" y="514"/>
      <point x="272" y="514" type="curve" smooth="yes"/>
      <point x="328" y="514"/>
      <point x="354" y="482"/>
      <point x="354" y="438" type="curve" smooth="yes"/>
      <point x="354" y="382"/>
      <point x="316" y="355"/>
      <point x="230" y="334" type="curve"/>
    </contour>
    <contour>
      <point x="568" y="0" type="line"/>
      <point x="610" y="0" type="line"/>
      <point x="610" y="529" type="line"/>
      <point x="568" y="529" type="line"/>
    </contour>
    <contour>
      <point x="472" y="550" type="line"/>
      <point x="472" y="510" type="line"/>
      <point x="706" y="510" type="line"/>
      <point x="706" y="550" type="line"/>
    </contour>
    <contour>
      <point x="784" y="0" type="line"/>
      <point x="826" y="0" type="line"/>
      <point x="826" y="529" type="line"/>
      <point x="784" y="529" type="line"/>
    </contour>
    <contour>
      <point x="688" y="550" type="line"/>
      <point x="688" y="510" type="line"/>
      <point x="922" y="510" type="line"/>
      <point x="922" y="550" type="line"/>
    </contour>
    <contour>
      <point x="478" y="714" type="curve" smooth="yes"/>
      <point x="450" y="714"/>
      <point x="433" y="708"/>
      <point x="401" y="695" type="curve"/>
      <point x="424" y="650" type="line"/>
      <point x="450" y="659"/>
      <point x="472" y="667"/>
      <point x="491" y="667" type="curve" smooth="yes"/>
      <point x="583" y="667"/>
      <point x="670" y="634"/>
      <point x="771" y="548" type="curve"/>
      <point x="811" y="548" type="line"/>
      <point x="702" y="656"/>
      <point x="604" y="714"/>
    </contour>
    <contour>
      <point x="535" y="846" type="curve" smooth="yes"/>
      <point x="506" y="846"/>
      <point x="489" y="840"/>
      <point x="457" y="827" type="curve"/>
      <point x="480" y="782" type="line"/>
      <point x="506" y="790"/>
      <point x="529" y="799"/>
      <point x="548" y="799" type="curve" smooth="yes"/>
      <point x="598" y="799"/>
      <point x="655" y="763"/>
      <point x="781" y="548" type="curve"/>
      <point x="818" y="548" type="line"/>
      <point x="683" y="780"/>
      <point x="625" y="846"/>
    </contour>
  </outline>
</glyph>
<glyph name="dvAusign" format="1">
  <advance width="214"/>
  <outline>
    <contour>
      <point x="86" y="0" type="line"/>
      <point x="128" y="0" type="line"/>
      <point x="128" y="529" type="line"/>
      <point x="86" y="529" type="line"/>
    </contour>
    <contour>
      <point x="-10" y="550" type="line"/>
      <point x="-10" y="510" type="line"/>
      <point x="224" y="510" type="line"/>
      <point x="224" y="550" type="line"/>
    </contour>
    <contour>
      <point x="-220" y="714" type="curve" smooth="yes"/>
      <point x="-248" y="714"/>
      <point x="-265" y="708"/>
      <point x="-297" y="695" type="curve"/>
      <point x="-274" y="650" type="line"/>
      <point x="-248" y="659"/>
      <point x="-226" y="667"/>
      <point x="-207" y="667" type="curve" smooth="yes"/>
      <point x="-115" y="667"/>
      <point x="-28" y="634"/>
      <point x="73" y="548" type="curve"/>
      <point x="113" y="548" type="line"/>
      <point x="4" y="656"/>
      <point x="-94" y="714"/>
    </contour>
    <contour>
      <point x="-163" y="846" type="curve" smooth="yes"/>
      <point x="-192" y="846"/>
      <point x="-209" y="840"/>
      <point x="-241" y="827" type="curve"/>
      <point x="-218" y="782" type="line"/>
      <point x="-192" y="790"/>
      <point x="-169" y="799"/>
      <point x="-150" y="799" type="curve" smooth="yes"/>
      <point x="-100" y="799"/>
      <point x="-43" y="763"/>
      <point x="83" y="548" type="curve"/>
      <point x="120" y="548" type="line"/>
      <point x="-15" y="780"/>
      <point x="-73" y="846"/>
    </contour>
  </outline>
</glyph>
<glyph name="dvBa" format="1">
	<advance width="508"/>
	<outline>
		<contour>
			<point x="348" y="163" type="line"/>
			<point x="159" y="370" type="line"/>
			<point x="122" y="353" type="line"/>
			<point x="313" y="143" type="line"/>
		</contour>
		<contour>
			<point x="-10" y="550" type="line"/>
			<point x="-10" y="510" type="line"/>
			<point x="518" y="510" type="line"/>
			<point x="518" y="550" type="line"/>
		</contour>
		<contour>
			<point x="226" y="94" type="curve" smooth="yes"/>
			<point x="290" y="94"/>
			<point x="350" y="126"/>
			<point x="380" y="171" type="curve"/>
			<point x="380" y="280" type="line"/>
			<point x="380" y="262"/>
			<point x="378" y="249"/>
			<point x="373" y="236" type="curve" smooth="yes"/>
			<point x="353" y="178"/>
			<point x="294" y="140"/>
			<point x="220" y="140" type="curve" smooth="yes"/>
			<point x="150" y="140"/>
			<point x="88" y="186"/>
			<point x="88" y="254" type="curve" smooth="yes"/>
			<point x="88" y="316"/>
			<point x="128" y="370"/>
			<point x="224" y="370" type="curve" smooth="yes"/>
			<point x="280" y="370"/>
			<point x="324" y="352"/>
			<point x="380" y="299" type="curve"/>
			<point x="389" y="340" type="line"/>
			<point x="334" y="394"/>
			<point x="280" y="416"/>
			<point x="212" y="416" type="curve" smooth="yes"/>
			<point x="110" y="416"/>
			<point x="44" y="342"/>
			<point x="44" y="256" type="curve" smooth="yes"/>
			<point x="44" y="161"/>
			<point x="126" y="94"/>
		</contour>
		<contour>
			<point x="380" y="0" type="line"/>
			<point x="422" y="0" type="line"/>
			<point x="422" y="529" type="line"/>
			<point x="380" y="529" type="line"/>
		</contour>
	</outline>
</glyph>
<glyph name="dvCha" format="1">
	<advance width="582"/>
	<outline>
		<contour>
			<point x="72" y="318" type="curve" smooth="yes"/>
			<point x="72" y="359"/>
			<point x="95" y="387"/>
			<point x="171" y="387" type="curve" smooth="yes"/>
			<point x="184" y="387"/>
			<point x="199" y="386"/>
			<point x="215" y="385" type="curve"/>
			<point x="205" y="429" type="line"/>
			<point x="186" y="432"/>
			<point x="174" y="432"/>
			<point x="160" y="432" type="curve" smooth="yes"/>
			<point x="73" y="432"/>
			<point x="30" y="377"/>
			<point x="30" y="322" type="curve" smooth="yes"/>
			<point x="30" y="259"/>
			<point x="86" y="219"/>
			<point x="139" y="214" type="curve"/>
			<point x="149" y="248" type="line"/>
			<point x="105" y="254"/>
			<point x="72" y="284"/>
		</contour>
		<contour>
			<point x="214" y="276" type="line"/>
			<point x="133" y="272"/>
			<point x="74" y="226"/>
			<point x="74" y="166" type="curve" smooth="yes"/>
			<point x="74" y="66"/>
			<point x="152" y="26"/>
			<point x="254" y="26" type="curve" smooth="yes"/>
			<point x="401" y="26"/>
			<point x="522" y="137"/>
			<point x="522" y="280" type="curve" smooth="yes"/>
			<point x="522" y="378"/>
			<point x="465" y="440"/>
			<point x="388" y="440" type="curve" smooth="yes"/>
			<point x="335" y="440"/>
			<point x="286" y="391"/>
			<point x="286" y="327" type="curve" smooth="yes"/>
			<point x="286" y="236"/>
			<point x="352" y="190"/>
			<point x="448" y="142" type="curve"/>
			<point x="462" y="176" type="line"/>
			<point x="372" y="218"/>
			<point x="326" y="264"/>
			<point x="326" y="322" type="curve" smooth="yes"/>
			<point x="326" y="374"/>
			<point x="356" y="400"/>
			<point x="394" y="400" type="curve" smooth="yes"/>
			<point x="442" y="400"/>
			<point x="480" y="354"/>
			<point x="480" y="284" type="curve" smooth="yes"/>
			<point x="480" y="161"/>
			<point x="384" y="70"/>
			<point x="249" y="70" type="curve" smooth="yes"/>
			<point x="171" y="70"/>
			<point x="116" y="102"/>
			<point x="116" y="162" type="curve" smooth="yes"/>
			<point x="116" y="199"/>
			<point x="144" y="226"/>
			<point x="225" y="232" type="curve"/>
		</contour>
		<contour>
			<point x="379" y="524" type="line"/>
			<point x="379" y="422" type="line"/>
			<point x="423" y="412" type="line"/>
			<point x="423" y="524" type="line"/>
		</contour>
		<contour>
			<point x="-10" y="550" type="line"/>
			<point x="-10" y="510" type="line"/>
			<point x="592" y="510" type="line"/>
			<point x="592" y="550" type="line"/>
		</contour>
	</outline>
</glyph>
<glyph name="dvCa" format="1">
  <advance width="564"/>
  <outline>
    <contour>
      <point x="-10" y="550" type="line"/>
      <point x="-10" y="510" type="line"/>
      <point x="574" y="510" type="line"/>
      <point x="574" y="550" type="line"/>
    </contour>
    <contour>
      <point x="290" y="172" type="curve" smooth="yes"/>
      <point x="235" y="172"/>
      <point x="192" y="205"/>
      <point x="192" y="248" type="curve" smooth="yes"/>
      <point x="192" y="295"/>
      <point x="228" y="334"/>
      <point x="314" y="342" type="curve"/>
      <point x="297" y="377" type="line"/>
      <point x="197" y="370"/>
      <point x="148" y="311"/>
      <point x="148" y="248" type="curve" smooth="yes"/>
      <point x="148" y="169"/>
      <point x="208" y="126"/>
      <point x="294" y="126" type="curve" smooth="yes"/>
      <point x="339" y="126"/>
      <point x="400" y="147"/>
      <point x="436" y="195" type="curve"/>
      <point x="436" y="300" type="line"/>
      <point x="436" y="282"/>
      <point x="434" y="269"/>
      <point x="430" y="256" type="curve" smooth="yes"/>
      <point x="411" y="200"/>
      <point x="351" y="172"/>
    </contour>
    <contour>
      <point x="314" y="381" type="line"/>
      <point x="52" y="381" type="line"/>
      <point x="52" y="338" type="line"/>
      <point x="214" y="338" type="line"/>
      <point x="269" y="357" type="line"/>
      <point x="314" y="342" type="line"/>
    </contour>
    <contour>
      <point x="436" y="0" type="line"/>
      <point x="478" y="0" type="line"/>
      <point x="478" y="529" type="line"/>
      <point x="436" y="529" type="line"/>
    </contour>
  </outline>
</glyph>
<glyph name="dvDha" format="1">
	<advance width="518"/>
	<outline>
		<contour>
			<point x="-10" y="550" type="line"/>
			<point x="-10" y="510" type="line"/>
			<point x="528" y="510" type="line"/>
			<point x="528" y="550" type="line"/>
		</contour>
		<contour>
			<point x="179" y="275" type="curve"/>
			<point x="175" y="318" type="line"/>
			<point x="120" y="328"/>
			<point x="68" y="375"/>
			<point x="68" y="431" type="curve" smooth="yes"/>
			<point x="68" y="476"/>
			<point x="83" y="504"/>
			<point x="105" y="523" type="curve"/>
			<point x="53" y="532" type="line"/>
			<point x="32" y="504"/>
			<point x="26" y="469"/>
			<point x="26" y="446" type="curve" smooth="yes"/>
			<point x="26" y="344"/>
			<point x="102" y="284"/>
		</contour>
		<contour>
			<point x="274" y="158" type="curve" smooth="yes"/>
			<point x="221" y="158"/>
			<point x="179" y="192"/>
			<point x="179" y="234" type="curve" smooth="yes"/>
			<point x="179" y="281"/>
			<point x="204" y="307"/>
			<point x="258" y="324" type="curve"/>
			<point x="239" y="365" type="line"/>
			<point x="172" y="346"/>
			<point x="137" y="297"/>
			<point x="137" y="249" type="curve" smooth="yes"/>
			<point x="137" y="164"/>
			<point x="196" y="111"/>
			<point x="288" y="111" type="curve" smooth="yes"/>
			<point x="322" y="111"/>
			<point x="366" y="125"/>
			<point x="390" y="154" type="curve"/>
			<point x="390" y="259" type="line"/>
			<point x="390" y="241"/>
			<point x="388" y="228"/>
			<point x="384" y="215" type="curve"/>
			<point x="368" y="179"/>
			<point x="324" y="158"/>
		</contour>
		<contour>
			<point x="390" y="0" type="line"/>
			<point x="432" y="0" type="line"/>
			<point x="432" y="519" type="line"/>
			<point x="390" y="519" type="line"/>
		</contour>
	</outline>
</glyph>
<glyph name="dvDa" format="1">
  <advance width="440"/>
  <outline>
    <contour>
      <point x="439" y="-85" type="curve"/>
      <point x="469" y="-55" type="line"/>
      <point x="421" y="-8"/>
      <point x="400" y="15"/>
      <point x="375" y="62" type="curve"/>
      <point x="404" y="84"/>
      <point x="417" y="114"/>
      <point x="417" y="145" type="curve" smooth="yes"/>
      <point x="417" y="180"/>
      <point x="394" y="207"/>
      <point x="362" y="207" type="curve" smooth="yes"/>
      <point x="330" y="207"/>
      <point x="300" y="180"/>
      <point x="300" y="143" type="curve" smooth="yes"/>
      <point x="300" y="69"/>
      <point x="374" y="-13"/>
    </contour>
    <contour>
      <point x="-10" y="550" type="line"/>
      <point x="-10" y="510" type="line"/>
      <point x="450" y="510" type="line"/>
      <point x="450" y="550" type="line"/>
    </contour>
    <contour>
      <point x="240" y="26" type="curve" smooth="yes"/>
      <point x="285" y="26"/>
      <point x="336" y="38"/>
      <point x="388" y="70" type="curve"/>
      <point x="368" y="108" type="line"/>
      <point x="320" y="80"/>
      <point x="287" y="70"/>
      <point x="236" y="70" type="curve" smooth="yes"/>
      <point x="158" y="70"/>
      <point x="84" y="124"/>
      <point x="84" y="212" type="curve" smooth="yes"/>
      <point x="84" y="278"/>
      <point x="126" y="358"/>
      <point x="242" y="358" type="curve" smooth="yes"/>
      <point x="348" y="358" type="line"/>
      <point x="348" y="520" type="line"/>
      <point x="306" y="520" type="line"/>
      <point x="306" y="402" type="line"/>
      <point x="236" y="402" type="line" smooth="yes"/>
      <point x="112" y="402"/>
      <point x="40" y="316"/>
      <point x="40" y="216" type="curve" smooth="yes"/>
      <point x="40" y="86"/>
      <point x="138" y="26"/>
    </contour>
  </outline>
</glyph>
<glyph name="dvDda.copy_1" format="1">
  <advance width="534"/>
  <outline>
    <contour>
      <point x="-10" y="550" type="line"/>
      <point x="-10" y="510" type="line"/>
      <point x="544" y="510" type="line"/>
      <point x="544" y="550" type="line"/>
    </contour>
    <contour>
      <point x="293" y="380" type="curve" smooth="yes"/>
      <point x="352" y="380"/>
      <point x="374" y="378"/>
      <point x="434" y="376" type="curve"/>
      <point x="434" y="529" type="line"/>
      <point x="391" y="529" type="line"/>
      <point x="391" y="417" type="line"/>
      <point x="345" y="419"/>
      <point x="325" y="419"/>
      <point x="284" y="419" type="curve" smooth="yes"/>
      <point x="201" y="419"/>
      <point x="146" y="390"/>
      <point x="146" y="320" type="curve" smooth="yes"/>
      <point x="146" y="276"/>
      <point x="178" y="236"/>
      <point x="204" y="206" type="curve"/>
      <point x="262" y="202"/>
      <point x="292" y="206"/>
      <point x="354" y="206" type="curve" smooth="yes"/>
      <point x="418" y="206"/>
      <point x="436" y="180"/>
      <point x="436" y="147" type="curve" smooth="yes"/>
      <point x="436" y="96"/>
      <point x="388" y="57"/>
      <point x="306" y="57" type="curve" smooth="yes"/>
      <point x="178" y="57"/>
      <point x="110" y="138"/>
      <point x="71" y="246" type="curve"/>
      <point x="38" y="231" type="line"/>
      <point x="81" y="92"/>
      <point x="176" y="13"/>
      <point x="307" y="13" type="curve" smooth="yes"/>
      <point x="396" y="13"/>
      <point x="478" y="58"/>
      <point x="478" y="143" type="curve" smooth="yes"/>
      <point x="478" y="215"/>
      <point x="438" y="246"/>
      <point x="351" y="246" type="curve" smooth="yes"/>
      <point x="295" y="246"/>
      <point x="265" y="245"/>
      <point x="222" y="248" type="curve"/>
      <point x="205" y="262"/>
      <point x="188" y="293"/>
      <point x="188" y="316" type="curve" smooth="yes"/>
      <point x="188" y="362"/>
      <point x="223" y="380"/>
    </contour>
  </outline>
</glyph>
<glyph name="dvE" format="1">
  <advance width="451"/>
  <outline>
    <contour>
      <point x="91" y="520" type="line"/>
      <point x="47" y="520" type="line"/>
      <point x="47" y="376" type="line" smooth="yes"/>
      <point x="47" y="264"/>
      <point x="70" y="207"/>
      <point x="156" y="164" type="curve" smooth="yes"/>
      <point x="276" y="103" type="line" smooth="yes"/>
      <point x="359" y="62"/>
      <point x="368" y="26"/>
      <point x="368" y="-9" type="curve" smooth="yes"/>
      <point x="368" y="-43"/>
      <point x="348" y="-56"/>
      <point x="333" y="-70" type="curve"/>
      <point x="363" y="-101" type="line"/>
      <point x="393" y="-73"/>
      <point x="406" y="-55"/>
      <point x="406" y="-15" type="curve" smooth="yes"/>
      <point x="406" y="50"/>
      <point x="374" y="97"/>
      <point x="295" y="139" type="curve" smooth="yes"/>
      <point x="175" y="199" type="line" smooth="yes"/>
      <point x="115" y="229"/>
      <point x="91" y="261"/>
      <point x="91" y="365" type="curve" smooth="yes"/>
    </contour>
    <contour>
      <point x="335" y="530" type="line"/>
      <point x="335" y="372" type="line" smooth="yes"/>
      <point x="335" y="316"/>
      <point x="316" y="288"/>
      <point x="278" y="267" type="curve"/>
      <point x="303" y="227" type="line"/>
      <point x="354" y="256"/>
      <point x="379" y="298"/>
      <point x="379" y="364" type="curve" smooth="yes"/>
      <point x="379" y="530" type="line"/>
    </contour>
    <contour>
      <point x="-10" y="550" type="line"/>
      <point x="-10" y="510" type="line"/>
      <point x="458" y="510" type="line"/>
      <point x="458" y="550" type="line"/>
    </contour>
  </outline>
</glyph>
<glyph name="dvEcandra" format="1">
	<advance width="451"/>
	<outline>
		<contour>
			<point x="224" y="610" type="curve" smooth="yes"/>
			<point x="297" y="610"/>
			<point x="338" y="655"/>
			<point x="338" y="702" type="curve" smooth="yes"/>
			<point x="338" y="723"/>
			<point x="338" y="732"/>
			<point x="330" y="758" type="curve"/>
			<point x="288" y="748" type="line"/>
			<point x="292" y="730"/>
			<point x="294" y="720"/>
			<point x="294" y="706" type="curve" smooth="yes"/>
			<point x="294" y="677"/>
			<point x="274" y="652"/>
			<point x="222" y="652" type="curve" smooth="yes"/>
			<point x="188" y="652"/>
			<point x="150" y="665"/>
			<point x="106" y="726" type="curve"/>
			<point x="76" y="704" type="line"/>
			<point x="128" y="628"/>
			<point x="182" y="610"/>
		</contour>
		<component base="dvE"/>
	</outline>
</glyph>
<glyph name="dvEshortsign" format="1">
	<outline>
		<contour>
			<point x="-495" y="762" type="line"/>
			<point x="-476" y="716"/>
			<point x="-444" y="672"/>
			<point x="-392" y="672" type="curve" smooth="yes"/>
			<point x="-346" y="672"/>
			<point x="-308" y="690"/>
			<point x="-276" y="690" type="curve" smooth="yes"/>
			<point x="-228" y="690"/>
			<point x="-188" y="658"/>
			<point x="-141" y="549" type="curve"/>
			<point x="-100" y="549" type="line"/>
			<point x="-164" y="686"/>
			<point x="-202" y="736"/>
			<point x="-280" y="736" type="curve" smooth="yes"/>
			<point x="-314" y="736"/>
			<point x="-351" y="718"/>
			<point x="-394" y="718" type="curve" smooth="yes"/>
			<point x="-421" y="718"/>
			<point x="-440" y="729"/>
			<point x="-466" y="779" type="curve"/>
		</contour>
	</outline>
</glyph>
<glyph name="dvEsign" format="1">
	<outline>
		<contour>
			<point x="-396" y="790" type="curve" smooth="yes"/>
			<point x="-424" y="790"/>
			<point x="-441" y="784"/>
			<point x="-473" y="771" type="curve"/>
			<point x="-451" y="725" type="line"/>
			<point x="-424" y="736"/>
			<point x="-404" y="742"/>
			<point x="-383" y="742" type="curve" smooth="yes"/>
			<point x="-287" y="742"/>
			<point x="-186" y="606"/>
			<point x="-141" y="548" type="curve"/>
			<point x="-94" y="548" type="line"/>
			<point x="-184" y="662"/>
			<point x="-272" y="790"/>
		</contour>
	</outline>
</glyph>
<glyph name="dvEcandra" format="1">
  <advance width="451"/>
  <outline>
    <contour>
      <point x="91" y="520" type="line"/>
      <point x="47" y="520" type="line"/>
      <point x="47" y="376" type="line" smooth="yes"/>
      <point x="47" y="264"/>
      <point x="70" y="207"/>
      <point x="156" y="164" type="curve" smooth="yes"/>
      <point x="276" y="103" type="line" smooth="yes"/>
      <point x="359" y="62"/>
      <point x="368" y="26"/>
      <point x="368" y="-9" type="curve" smooth="yes"/>
      <point x="368" y="-43"/>
      <point x="348" y="-56"/>
      <point x="333" y="-70" type="curve"/>
      <point x="363" y="-101" type="line"/>
      <point x="393" y="-73"/>
      <point x="406" y="-55"/>
      <point x="406" y="-15" type="curve" smooth="yes"/>
      <point x="406" y="50"/>
      <point x="374" y="97"/>
      <point x="295" y="139" type="curve" smooth="yes"/>
      <point x="175" y="199" type="line" smooth="yes"/>
      <point x="115" y="229"/>
      <point x="91" y="261"/>
      <point x="91" y="365" type="curve" smooth="yes"/>
    </contour>
    <contour>
      <point x="335" y="530" type="line"/>
      <point x="335" y="372" type="line" smooth="yes"/>
      <point x="335" y="316"/>
      <point x="316" y="288"/>
      <point x="278" y="267" type="curve"/>
      <point x="303" y="227" type="line"/>
      <point x="354" y="256"/>
      <point x="379" y="298"/>
      <point x="379" y="364" type="curve" smooth="yes"/>
      <point x="379" y="530" type="line"/>
    </contour>
    <contour>
      <point x="-10" y="550" type="line"/>
      <point x="-10" y="510" type="line"/>
      <point x="458" y="510" type="line"/>
      <point x="458" y="550" type="line"/>
    </contour>
    <contour>
      <point x="224" y="610" type="curve" smooth="yes"/>
      <point x="297" y="610"/>
      <point x="338" y="655"/>
      <point x="338" y="702" type="curve" smooth="yes"/>
      <point x="338" y="723"/>
      <point x="338" y="732"/>
      <point x="330" y="758" type="curve"/>
      <point x="288" y="748" type="line"/>
      <point x="292" y="730"/>
      <point x="294" y="720"/>
      <point x="294" y="706" type="curve" smooth="yes"/>
      <point x="294" y="677"/>
      <point x="274" y="652"/>
      <point x="222" y="652" type="curve" smooth="yes"/>
      <point x="188" y="652"/>
      <point x="150" y="665"/>
      <point x="106" y="726" type="curve"/>
      <point x="76" y="704" type="line"/>
      <point x="128" y="628"/>
      <point x="182" y="610"/>
    </contour>
  </outline>
</glyph>
<glyph name="dvEcandrasign" format="1">
  <advance width="0"/>
  <outline>
    <contour>
      <point x="-126" y="610" type="curve" smooth="yes"/>
      <point x="-53" y="610"/>
      <point x="-12" y="655"/>
      <point x="-12" y="702" type="curve" smooth="yes"/>
      <point x="-12" y="723"/>
      <point x="-12" y="732"/>
      <point x="-20" y="758" type="curve"/>
      <point x="-62" y="748" type="line"/>
      <point x="-58" y="730"/>
      <point x="-56" y="720"/>
      <point x="-56" y="706" type="curve" smooth="yes"/>
      <point x="-56" y="677"/>
      <point x="-76" y="652"/>
      <point x="-128" y="652" type="curve" smooth="yes"/>
      <point x="-162" y="652"/>
      <point x="-200" y="665"/>
      <point x="-244" y="726" type="curve"/>
      <point x="-274" y="704" type="line"/>
      <point x="-222" y="628"/>
      <point x="-168" y="610"/>
    </contour>
  </outline>
</glyph>
<glyph name="dvEshort" format="1">
  <advance width="451"/>
  <outline>
    <contour>
      <point x="91" y="520" type="line"/>
      <point x="47" y="520" type="line"/>
      <point x="47" y="376" type="line" smooth="yes"/>
      <point x="47" y="264"/>
      <point x="70" y="207"/>
      <point x="156" y="164" type="curve" smooth="yes"/>
      <point x="276" y="103" type="line" smooth="yes"/>
      <point x="359" y="62"/>
      <point x="368" y="26"/>
      <point x="368" y="-9" type="curve" smooth="yes"/>
      <point x="368" y="-43"/>
      <point x="348" y="-56"/>
      <point x="333" y="-70" type="curve"/>
      <point x="363" y="-101" type="line"/>
      <point x="393" y="-73"/>
      <point x="406" y="-55"/>
      <point x="406" y="-15" type="curve" smooth="yes"/>
      <point x="406" y="50"/>
      <point x="374" y="97"/>
      <point x="295" y="139" type="curve" smooth="yes"/>
      <point x="175" y="199" type="line" smooth="yes"/>
      <point x="115" y="229"/>
      <point x="91" y="261"/>
      <point x="91" y="365" type="curve" smooth="yes"/>
    </contour>
    <contour>
      <point x="335" y="530" type="line"/>
      <point x="335" y="372" type="line" smooth="yes"/>
      <point x="335" y="316"/>
      <point x="316" y="288"/>
      <point x="278" y="267" type="curve"/>
      <point x="303" y="227" type="line"/>
      <point x="354" y="256"/>
      <point x="379" y="298"/>
      <point x="379" y="364" type="curve" smooth="yes"/>
      <point x="379" y="530" type="line"/>
    </contour>
    <contour>
      <point x="-10" y="550" type="line"/>
      <point x="-10" y="510" type="line"/>
      <point x="458" y="510" type="line"/>
      <point x="458" y="550" type="line"/>
    </contour>
    <contour>
      <point x="-35" y="762" type="line"/>
      <point x="-16" y="716"/>
      <point x="16" y="672"/>
      <point x="68" y="672" type="curve" smooth="yes"/>
      <point x="114" y="672"/>
      <point x="152" y="690"/>
      <point x="184" y="690" type="curve" smooth="yes"/>
      <point x="232" y="690"/>
      <point x="272" y="658"/>
      <point x="319" y="549" type="curve"/>
      <point x="360" y="549" type="line"/>
      <point x="296" y="686"/>
      <point x="258" y="736"/>
      <point x="180" y="736" type="curve" smooth="yes"/>
      <point x="146" y="736"/>
      <point x="109" y="718"/>
      <point x="66" y="718" type="curve" smooth="yes"/>
      <point x="39" y="718"/>
      <point x="20" y="729"/>
      <point x="-6" y="779" type="curve"/>
    </contour>
  </outline>
</glyph>
<glyph name="dvFa" format="1">
  <advance width="686"/>
  <outline>
    <contour>
      <point x="-10" y="550" type="line"/>
      <point x="-10" y="510" type="line"/>
      <point x="696" y="510" type="line"/>
      <point x="696" y="550" type="line"/>
    </contour>
    <contour>
      <point x="232" y="208" type="curve" smooth="yes"/>
      <point x="164" y="208"/>
      <point x="108" y="250"/>
      <point x="108" y="395" type="curve" smooth="yes"/>
      <point x="108" y="522" type="line"/>
      <point x="65" y="522" type="line"/>
      <point x="65" y="408" type="line" smooth="yes"/>
      <point x="65" y="229"/>
      <point x="134" y="166"/>
      <point x="238" y="166" type="curve" smooth="yes"/>
      <point x="271" y="166"/>
      <point x="314" y="180"/>
      <point x="340" y="209" type="curve"/>
      <point x="340" y="316" type="line"/>
      <point x="340" y="298"/>
      <point x="338" y="283"/>
      <point x="334" y="270" type="curve" smooth="yes"/>
      <point x="321" y="232"/>
      <point x="277" y="208"/>
    </contour>
    <contour>
      <point x="340" y="0" type="line"/>
      <point x="382" y="0" type="line"/>
      <point x="382" y="529" type="line"/>
      <point x="340" y="529" type="line"/>
    </contour>
    <contour>
      <point x="375" y="218" type="line"/>
      <point x="424" y="290"/>
      <point x="472" y="316"/>
      <point x="525" y="316" type="curve" smooth="yes"/>
      <point x="566" y="316"/>
      <point x="592" y="279"/>
      <point x="592" y="239" type="curve" smooth="yes"/>
      <point x="592" y="188"/>
      <point x="564" y="134"/>
      <point x="527" y="85" type="curve"/>
      <point x="566" y="56" type="line"/>
      <point x="608" y="118"/>
      <point x="636" y="177"/>
      <point x="636" y="236" type="curve" smooth="yes"/>
      <point x="636" y="308"/>
      <point x="587" y="362"/>
      <point x="522" y="362" type="curve" smooth="yes"/>
      <point x="460" y="362"/>
      <point x="418" y="336"/>
      <point x="371" y="289" type="curve"/>
    </contour>
    <contour>
      <point x="162" y="41" type="curve" smooth="yes"/>
      <point x="140" y="41"/>
      <point x="123" y="21"/>
      <point x="123" y="-1" type="curve" smooth="yes"/>
      <point x="123" y="-23"/>
      <point x="138" y="-42"/>
      <point x="160" y="-42" type="curve" smooth="yes"/>
      <point x="185" y="-42"/>
      <point x="200" y="-23"/>
      <point x="200" y="-1" type="curve" smooth="yes"/>
      <point x="200" y="22"/>
      <point x="185" y="41"/>
    </contour>
  </outline>
</glyph>
<glyph name="dvGhha" format="1">
  <advance width="518"/>
  <outline>
    <contour>
      <point x="-10" y="550" type="line"/>
      <point x="-10" y="510" type="line"/>
      <point x="528" y="510" type="line"/>
      <point x="528" y="550" type="line"/>
    </contour>
    <contour>
      <point x="133" y="529" type="line"/>
      <point x="133" y="292" type="line"/>
      <point x="120" y="298"/>
      <point x="87" y="305"/>
      <point x="75" y="305" type="curve" smooth="yes"/>
      <point x="56" y="305"/>
      <point x="45" y="292"/>
      <point x="45" y="268" type="curve" smooth="yes"/>
      <point x="45" y="230"/>
      <point x="115" y="147"/>
      <point x="146" y="147" type="curve" smooth="yes"/>
      <point x="162" y="147"/>
      <point x="177" y="160"/>
      <point x="177" y="179" type="curve" smooth="yes"/>
      <point x="177" y="529" type="line"/>
    </contour>
    <contour>
      <point x="390" y="0" type="line"/>
      <point x="432" y="0" type="line"/>
      <point x="432" y="529" type="line"/>
      <point x="390" y="529" type="line"/>
    </contour>
    <contour>
      <point x="252" y="41" type="curve" smooth="yes"/>
      <point x="230" y="41"/>
      <point x="213" y="21"/>
      <point x="213" y="-1" type="curve" smooth="yes"/>
      <point x="213" y="-23"/>
      <point x="228" y="-42"/>
      <point x="250" y="-42" type="curve" smooth="yes"/>
      <point x="275" y="-42"/>
      <point x="290" y="-23"/>
      <point x="290" y="-1" type="curve" smooth="yes"/>
      <point x="290" y="22"/>
      <point x="275" y="41"/>
    </contour>
  </outline>
</glyph>
<glyph name="dvHa" format="1">
	<advance width="426"/>
	<outline>
		<contour>
			<point x="345" y="-132" type="line"/>
			<point x="220" y="-76"/>
			<point x="106" y="2"/>
			<point x="106" y="98" type="curve" smooth="yes"/>
			<point x="106" y="172"/>
			<point x="152" y="218"/>
			<point x="238" y="218" type="curve" smooth="yes"/>
			<point x="300" y="218"/>
			<point x="341" y="182"/>
			<point x="341" y="128" type="curve" smooth="yes"/>
			<point x="341" y="93"/>
			<point x="325" y="51"/>
			<point x="285" y="26" type="curve"/>
			<point x="313" y="-8" type="line"/>
			<point x="356" y="25"/>
			<point x="383" y="68"/>
			<point x="383" y="118" type="curve" smooth="yes"/>
			<point x="383" y="187"/>
			<point x="329" y="263"/>
			<point x="229" y="263" type="curve" smooth="yes"/>
			<point x="124" y="263"/>
			<point x="65" y="195"/>
			<point x="65" y="112" type="curve" smooth="yes"/>
			<point x="65" y="-13"/>
			<point x="194" y="-102"/>
			<point x="330" y="-164" type="curve"/>
		</contour>
		<contour>
			<point x="-10" y="550" type="line"/>
			<point x="-10" y="510" type="line"/>
			<point x="436" y="510" type="line"/>
			<point x="436" y="550" type="line"/>
		</contour>
		<contour>
			<point x="222" y="380" type="curve" smooth="yes"/>
			<point x="277" y="380"/>
			<point x="301" y="378"/>
			<point x="357" y="376" type="curve"/>
			<point x="357" y="529" type="line"/>
			<point x="314" y="529" type="line"/>
			<point x="314" y="417" type="line"/>
			<point x="268" y="419"/>
			<point x="244" y="419"/>
			<point x="203" y="419" type="curve" smooth="yes"/>
			<point x="120" y="419"/>
			<point x="70" y="393"/>
			<point x="70" y="320" type="curve" smooth="yes"/>
			<point x="70" y="278"/>
			<point x="94" y="235"/>
			<point x="119" y="204" type="curve"/>
			<point x="142" y="226" type="line"/>
			<point x="128" y="249"/>
			<point x="110" y="272"/>
			<point x="110" y="306" type="curve" smooth="yes"/>
			<point x="110" y="359"/>
			<point x="145" y="380"/>
		</contour>
	</outline>
</glyph>
<glyph name="dvI" format="1">
	<advance width="474"/>
	<outline>
		<contour>
			<point x="-10" y="550" type="line"/>
			<point x="-10" y="522" type="line"/>
			<point x="484" y="522" type="line"/>
			<point x="484" y="550" type="line"/>
		</contour>
		<contour>
			<point x="247" y="14" type="curve" smooth="yes"/>
			<point x="336" y="14"/>
			<point x="418" y="60"/>
			<point x="418" y="144" type="curve" smooth="yes"/>
			<point x="418" y="191"/>
			<point x="399" y="227"/>
			<point x="370" y="257" type="curve"/>
			<point x="335" y="254"/>
			<point x="301" y="244"/>
			<point x="243" y="244" type="curve" smooth="yes"/>
			<point x="152" y="244"/>
			<point x="128" y="278"/>
			<point x="128" y="316" type="curve" smooth="yes"/>
			<point x="128" y="362"/>
			<point x="163" y="380"/>
			<point x="233" y="380" type="curve" smooth="yes"/>
			<point x="289.489361702" y="380"/>
			<point x="310.55029486" y="377.914990171"/>
			<point x="368" y="376" type="curve"/>
			<point x="368" y="529" type="line"/>
			<point x="337" y="529" type="line"/>
			<point x="337" y="417" type="line"/>
			<point x="288.425298636" y="419.111943538"/>
			<point x="267.299065421" y="419"/>
			<point x="224" y="419" type="curve" smooth="yes"/>
			<point x="141" y="419"/>
			<point x="86" y="390"/>
			<point x="86" y="320" type="curve" smooth="yes"/>
			<point x="86" y="244"/>
			<point x="148" y="203"/>
			<point x="246" y="203" type="curve" smooth="yes"/>
			<point x="296" y="203"/>
			<point x="336" y="212"/>
			<point x="355" y="214" type="curve"/>
			<point x="367" y="199"/>
			<point x="376" y="167"/>
			<point x="376" y="148" type="curve" smooth="yes"/>
			<point x="376" y="98"/>
			<point x="328" y="58"/>
			<point x="246" y="58" type="curve" smooth="yes"/>
			<point x="226" y="58"/>
			<point x="209" y="60"/>
			<point x="183" y="73" type="curve"/>
			<point x="171" y="49" type="line"/>
			<point x="204" y="-20"/>
			<point x="270" y="-82"/>
			<point x="363" y="-103" type="curve"/>
			<point x="376" y="-58" type="line"/>
			<point x="316" y="-44"/>
			<point x="258" y="-16"/>
			<point x="230" y="34" type="curve"/>
			<point x="205" y="86"/>
			<point x="184" y="136"/>
			<point x="143" y="136" type="curve" smooth="yes"/>
			<point x="120" y="136"/>
			<point x="102" y="118"/>
			<point x="102" y="96" type="curve" smooth="yes"/>
			<point x="102" y="44"/>
			<point x="164" y="14"/>
		</contour>
	</outline>
</glyph>
<glyph name="dvIisign" format="1">
	<advance width="214"/>
	<outline>
		<contour>
			<point x="-208" y="652" type="curve" smooth="yes"/>
			<point x="-208" y="606"/>
			<point x="-174" y="568"/>
			<point x="-134" y="541" type="curve"/>
			<point x="-74" y="541" type="line"/>
			<point x="-138" y="578"/>
			<point x="-166" y="612"/>
			<point x="-166" y="648" type="curve" smooth="yes"/>
			<point x="-166" y="684"/>
			<point x="-144" y="702"/>
			<point x="-104" y="702" type="curve" smooth="yes"/>
			<point x="-45" y="702"/>
			<point x="12" y="648"/>
			<point x="78" y="539" type="curve"/>
			<point x="122" y="539" type="line"/>
			<point x="48" y="662"/>
			<point x="-18" y="748"/>
			<point x="-114" y="748" type="curve" smooth="yes"/>
			<point x="-164" y="748"/>
			<point x="-208" y="714"/>
		</contour>
		<component base="dvAasign"/>
	</outline>
</glyph>
<glyph name="dvIsign" format="1">
	<advance width="214"/>
	<outline>
		<contour>
			<point x="20" y="652" type="curve" smooth="yes"/>
			<point x="20" y="598"/>
			<point x="52" y="568"/>
			<point x="86" y="541" type="curve"/>
			<point x="146" y="541" type="line"/>
			<point x="90" y="578"/>
			<point x="62" y="604"/>
			<point x="62" y="648" type="curve" smooth="yes"/>
			<point x="62" y="684"/>
			<point x="112" y="702"/>
			<point x="194" y="702" type="curve" smooth="yes"/>
			<point x="318" y="702"/>
			<point x="462" y="648"/>
			<point x="628" y="539" type="curve"/>
			<point x="682" y="539" type="line"/>
			<point x="530" y="662"/>
			<point x="336" y="748"/>
			<point x="184" y="748" type="curve" smooth="yes"/>
			<point x="82" y="748"/>
			<point x="20" y="714"/>
		</contour>
		<component base="dvAasign"/>
	</outline>
</glyph>
<glyph name="dvIisign" format="1">
  <advance width="214"/>
  <outline>
    <contour>
      <point x="-208" y="652" type="curve" smooth="yes"/>
      <point x="-208" y="606"/>
      <point x="-174" y="568"/>
      <point x="-134" y="541" type="curve"/>
      <point x="-74" y="541" type="line"/>
      <point x="-138" y="578"/>
      <point x="-166" y="612"/>
      <point x="-166" y="648" type="curve" smooth="yes"/>
      <point x="-166" y="684"/>
      <point x="-144" y="702"/>
      <point x="-104" y="702" type="curve" smooth="yes"/>
      <point x="-45" y="702"/>
      <point x="12" y="648"/>
      <point x="78" y="539" type="curve"/>
      <point x="122" y="539" type="line"/>
      <point x="48" y="662"/>
      <point x="-18" y="748"/>
      <point x="-114" y="748" type="curve" smooth="yes"/>
      <point x="-164" y="748"/>
      <point x="-208" y="714"/>
    </contour>
    <contour>
      <point x="86" y="0" type="line"/>
      <point x="128" y="0" type="line"/>
      <point x="128" y="529" type="line"/>
      <point x="86" y="529" type="line"/>
    </contour>
    <contour>
      <point x="-10" y="550" type="line"/>
      <point x="-10" y="510" type="line"/>
      <point x="224" y="510" type="line"/>
      <point x="224" y="550" type="line"/>
    </contour>
  </outline>
</glyph>
<glyph name="dvIsign" format="1">
  <advance width="214"/>
  <outline>
    <contour>
      <point x="20" y="652" type="curve" smooth="yes"/>
      <point x="20" y="598"/>
      <point x="52" y="568"/>
      <point x="86" y="541" type="curve"/>
      <point x="146" y="541" type="line"/>
      <point x="90" y="578"/>
      <point x="62" y="604"/>
      <point x="62" y="648" type="curve" smooth="yes"/>
      <point x="62" y="684"/>
      <point x="112" y="702"/>
      <point x="194" y="702" type="curve" smooth="yes"/>
      <point x="318" y="702"/>
      <point x="462" y="648"/>
      <point x="628" y="539" type="curve"/>
      <point x="682" y="539" type="line"/>
      <point x="530" y="662"/>
      <point x="336" y="748"/>
      <point x="184" y="748" type="curve" smooth="yes"/>
      <point x="82" y="748"/>
      <point x="20" y="714"/>
    </contour>
    <contour>
      <point x="86" y="0" type="line"/>
      <point x="128" y="0" type="line"/>
      <point x="128" y="529" type="line"/>
      <point x="86" y="529" type="line"/>
    </contour>
    <contour>
      <point x="-10" y="550" type="line"/>
      <point x="-10" y="510" type="line"/>
      <point x="224" y="510" type="line"/>
      <point x="224" y="550" type="line"/>
    </contour>
  </outline>
</glyph>
<glyph name="dvJa" format="1">
  <advance width="622"/>
  <outline>
    <contour>
      <point x="-10" y="550" type="line"/>
      <point x="-10" y="510" type="line"/>
      <point x="632" y="510" type="line"/>
      <point x="632" y="550" type="line"/>
    </contour>
    <contour>
      <point x="502" y="381" type="line"/>
      <point x="238" y="381" type="line"/>
      <point x="238" y="338" type="line"/>
      <point x="502" y="338" type="line"/>
    </contour>
    <contour>
      <point x="251" y="98" type="curve" smooth="yes"/>
      <point x="338" y="98"/>
      <point x="397" y="154"/>
      <point x="397" y="223" type="curve" smooth="yes"/>
      <point x="397" y="304"/>
      <point x="342" y="357"/>
      <point x="280" y="375" type="curve"/>
      <point x="274" y="347" type="line"/>
      <point x="329" y="330"/>
      <point x="355" y="285"/>
      <point x="355" y="238" type="curve" smooth="yes"/>
      <point x="355" y="187"/>
      <point x="320" y="144"/>
      <point x="248" y="144" type="curve" smooth="yes"/>
      <point x="148" y="144"/>
      <point x="82" y="250"/>
      <point x="49" y="423" type="curve"/>
      <point x="13" y="413" type="line"/>
      <point x="48" y="225"/>
      <point x="128" y="98"/>
    </contour>
    <contour>
      <point x="494" y="0" type="line"/>
      <point x="536" y="0" type="line"/>
      <point x="536" y="529" type="line"/>
      <point x="494" y="529" type="line"/>
    </contour>
  </outline>
</glyph>
<glyph name="dvJha" format="1">
  <advance width="676"/>
  <outline>
    <contour>
      <point x="555" y="276" type="line"/>
      <point x="530" y="233"/>
      <point x="484" y="232"/>
      <point x="460" y="232" type="curve" smooth="yes"/>
      <point x="431" y="232"/>
      <point x="419" y="234"/>
      <point x="370" y="257" type="curve"/>
      <point x="354" y="230" type="line"/>
      <point x="409" y="198"/>
      <point x="435" y="187"/>
      <point x="479" y="187" type="curve" smooth="yes"/>
      <point x="510" y="187"/>
      <point x="537" y="192"/>
      <point x="555" y="206" type="curve"/>
    </contour>
    <contour>
      <point x="548" y="0" type="line"/>
      <point x="590" y="0" type="line"/>
      <point x="590" y="529" type="line"/>
      <point x="548" y="529" type="line"/>
    </contour>
    <contour>
      <point x="452" y="550" type="line"/>
      <point x="452" y="510" type="line"/>
      <point x="686" y="510" type="line"/>
      <point x="686" y="550" type="line"/>
    </contour>
    <contour>
      <point x="-10" y="550" type="line"/>
      <point x="-10" y="510" type="line"/>
      <point x="484" y="510" type="line"/>
      <point x="484" y="550" type="line"/>
    </contour>
    <contour>
      <point x="247" y="14" type="curve" smooth="yes"/>
      <point x="336" y="14"/>
      <point x="418" y="60"/>
      <point x="418" y="144" type="curve" smooth="yes"/>
      <point x="418" y="191"/>
      <point x="399" y="227"/>
      <point x="370" y="257" type="curve"/>
      <point x="335" y="254"/>
      <point x="301" y="244"/>
      <point x="243" y="244" type="curve" smooth="yes"/>
      <point x="152" y="244"/>
      <point x="128" y="278"/>
      <point x="128" y="316" type="curve" smooth="yes"/>
      <point x="128" y="362"/>
      <point x="163" y="380"/>
      <point x="233" y="380" type="curve" smooth="yes"/>
      <point x="292" y="380"/>
      <point x="314" y="378"/>
      <point x="374" y="376" type="curve"/>
      <point x="374" y="529" type="line"/>
      <point x="331" y="529" type="line"/>
      <point x="331" y="417" type="line"/>
      <point x="285" y="419"/>
      <point x="265" y="419"/>
      <point x="224" y="419" type="curve" smooth="yes"/>
      <point x="141" y="419"/>
      <point x="86" y="390"/>
      <point x="86" y="320" type="curve" smooth="yes"/>
      <point x="86" y="244"/>
      <point x="148" y="203"/>
      <point x="246" y="203" type="curve" smooth="yes"/>
      <point x="296" y="203"/>
      <point x="336" y="212"/>
      <point x="355" y="214" type="curve"/>
      <point x="367" y="199"/>
      <point x="376" y="167"/>
      <point x="376" y="148" type="curve" smooth="yes"/>
      <point x="376" y="98"/>
      <point x="328" y="58"/>
      <point x="246" y="58" type="curve" smooth="yes"/>
      <point x="226" y="58"/>
      <point x="209" y="60"/>
      <point x="183" y="73" type="curve"/>
      <point x="171" y="49" type="line"/>
      <point x="204" y="-20"/>
      <point x="270" y="-82"/>
      <point x="363" y="-103" type="curve"/>
      <point x="376" y="-58" type="line"/>
      <point x="316" y="-44"/>
      <point x="258" y="-16"/>
      <point x="230" y="34" type="curve"/>
      <point x="205" y="86"/>
      <point x="184" y="136"/>
      <point x="143" y="136" type="curve" smooth="yes"/>
      <point x="120" y="136"/>
      <point x="102" y="118"/>
      <point x="102" y="96" type="curve" smooth="yes"/>
      <point x="102" y="44"/>
      <point x="164" y="14"/>
    </contour>
  </outline>
</glyph>
<glyph name="dvKa" format="1">
	<advance width="678"/>
	<outline>
		<contour>
			<point x="367" y="218" type="line"/>
			<point x="419" y="297"/>
			<point x="470" y="326"/>
			<point x="527" y="326" type="curve" smooth="yes"/>
			<point x="574" y="326"/>
			<point x="604" y="289"/>
			<point x="604" y="249" type="curve" smooth="yes"/>
			<point x="604" y="198"/>
			<point x="576" y="144"/>
			<point x="539" y="95" type="curve"/>
			<point x="578" y="66" type="line"/>
			<point x="620" y="128"/>
			<point x="648" y="187"/>
			<point x="648" y="246" type="curve" smooth="yes"/>
			<point x="648" y="318"/>
			<point x="595" y="372"/>
			<point x="524" y="372" type="curve" smooth="yes"/>
			<point x="458" y="372"/>
			<point x="413" y="342"/>
			<point x="363" y="289" type="curve"/>
		</contour>
		<contour>
			<point x="330" y="520" type="line"/>
			<point x="330" y="0" type="line"/>
			<point x="374" y="0" type="line"/>
			<point x="374" y="520" type="line"/>
		</contour>
		<contour>
			<point x="-30" y="550" type="line"/>
			<point x="-30" y="510" type="line"/>
			<point x="688" y="510" type="line"/>
			<point x="688" y="550" type="line"/>
		</contour>
		<contour>
			<point x="194" y="94" type="curve" smooth="yes"/>
			<point x="250" y="94"/>
			<point x="304" y="127"/>
			<point x="330" y="165" type="curve"/>
			<point x="330" y="274" type="line"/>
			<point x="330" y="256"/>
			<point x="328" y="243"/>
			<point x="323" y="230" type="curve" smooth="yes"/>
			<point x="305" y="178"/>
			<point x="252" y="140"/>
			<point x="188" y="140" type="curve" smooth="yes"/>
			<point x="122" y="140"/>
			<point x="70" y="182"/>
			<point x="70" y="244" type="curve" smooth="yes"/>
			<point x="70" y="301"/>
			<point x="101" y="352"/>
			<point x="190" y="352" type="curve" smooth="yes"/>
			<point x="238" y="352"/>
			<point x="284" y="335"/>
			<point x="332" y="295" type="curve"/>
			<point x="341" y="336" type="line"/>
			<point x="292" y="377"/>
			<point x="242" y="398"/>
			<point x="182" y="398" type="curve" smooth="yes"/>
			<point x="86" y="398"/>
			<point x="26" y="329"/>
			<point x="26" y="250" type="curve" smooth="yes"/>
			<point x="26" y="160"/>
			<point x="100" y="94"/>
		</contour>
	</outline>
</glyph>
<glyph name="dvKha" format="1">
  <advance width="684"/>
  <outline>
    <contour>
      <point x="176" y="550" type="line"/>
      <point x="176" y="510" type="line"/>
      <point x="694" y="510" type="line"/>
      <point x="694" y="550" type="line"/>
    </contour>
    <contour>
      <point x="436" y="118" type="curve" smooth="yes"/>
      <point x="488" y="118"/>
      <point x="532" y="138"/>
      <point x="556" y="165" type="curve"/>
      <point x="556" y="274" type="line"/>
      <point x="556" y="256"/>
      <point x="554" y="243"/>
      <point x="549" y="230" type="curve"/>
      <point x="531" y="190"/>
      <point x="489" y="164"/>
      <point x="430" y="164" type="curve" smooth="yes"/>
      <point x="375" y="164"/>
      <point x="334" y="194"/>
      <point x="334" y="244" type="curve" smooth="yes"/>
      <point x="334" y="292"/>
      <point x="370" y="326"/>
      <point x="432" y="326" type="curve" smooth="yes"/>
      <point x="482" y="326"/>
      <point x="514" y="312"/>
      <point x="558" y="265" type="curve"/>
      <point x="567" y="306" type="line"/>
      <point x="524" y="350"/>
      <point x="478" y="372"/>
      <point x="426" y="372" type="curve" smooth="yes"/>
      <point x="348" y="372"/>
      <point x="290" y="315"/>
      <point x="290" y="250" type="curve" smooth="yes"/>
      <point x="290" y="172"/>
      <point x="353" y="118"/>
    </contour>
    <contour>
      <point x="556" y="0" type="line"/>
      <point x="598" y="0" type="line"/>
      <point x="598" y="529" type="line"/>
      <point x="556" y="529" type="line"/>
    </contour>
    <contour>
      <point x="180" y="510" type="line"/>
      <point x="192" y="470"/>
      <point x="194" y="441"/>
      <point x="194" y="415" type="curve" smooth="yes"/>
      <point x="194" y="338"/>
      <point x="166" y="290"/>
      <point x="137" y="270" type="curve"/>
      <point x="127" y="299"/>
      <point x="108" y="312"/>
      <point x="90" y="312" type="curve" smooth="yes"/>
      <point x="67" y="312"/>
      <point x="46" y="289"/>
      <point x="46" y="253" type="curve" smooth="yes"/>
      <point x="46" y="232"/>
      <point x="52" y="212"/>
      <point x="59" y="197" type="curve" smooth="yes"/>
      <point x="99" y="116"/>
      <point x="168" y="38"/>
      <point x="219" y="-8" type="curve"/>
      <point x="248" y="23" type="line"/>
      <point x="196" y="65"/>
      <point x="134" y="126"/>
      <point x="102" y="192" type="curve"/>
      <point x="174" y="234"/>
      <point x="232" y="300"/>
      <point x="232" y="400" type="curve" smooth="yes"/>
      <point x="232" y="437"/>
      <point x="229" y="468"/>
      <point x="221" y="510" type="curve"/>
    </contour>
    <contour>
      <point x="-10" y="550" type="line"/>
      <point x="-10" y="510" type="line"/>
      <point x="328" y="510" type="line"/>
      <point x="328" y="550" type="line"/>
    </contour>
  </outline>
</glyph>
<glyph name="dvKhha" format="1">
  <advance width="684"/>
  <outline>
    <contour>
      <point x="342" y="41" type="curve" smooth="yes"/>
      <point x="320" y="41"/>
      <point x="303" y="21"/>
      <point x="303" y="-1" type="curve" smooth="yes"/>
      <point x="303" y="-23"/>
      <point x="318" y="-42"/>
      <point x="340" y="-42" type="curve" smooth="yes"/>
      <point x="365" y="-42"/>
      <point x="380" y="-23"/>
      <point x="380" y="-1" type="curve" smooth="yes"/>
      <point x="380" y="22"/>
      <point x="365" y="41"/>
    </contour>
  </outline>
</glyph>
<glyph name="dvLa" format="1">
	<advance width="622"/>
	<outline>
		<contour>
			<point x="-10" y="550" type="line"/>
			<point x="-10" y="510" type="line"/>
			<point x="632" y="510" type="line"/>
			<point x="632" y="550" type="line"/>
		</contour>
		<contour>
			<point x="364" y="291" type="line"/>
			<point x="325" y="361"/>
			<point x="284" y="398"/>
			<point x="199" y="398" type="curve" smooth="yes"/>
			<point x="104" y="398"/>
			<point x="45" y="335"/>
			<point x="45" y="252" type="curve" smooth="yes"/>
			<point x="45" y="132"/>
			<point x="153" y="46"/>
			<point x="249" y="-16" type="curve"/>
			<point x="272" y="18" type="line"/>
			<point x="194" y="62"/>
			<point x="88" y="138"/>
			<point x="88" y="239" type="curve" smooth="yes"/>
			<point x="88" y="312"/>
			<point x="132" y="353"/>
			<point x="209" y="353" type="curve" smooth="yes"/>
			<point x="259" y="353"/>
			<point x="299" y="335"/>
			<point x="335" y="272" type="curve"/>
		</contour>
		<contour>
			<point x="299" y="174" type="line"/>
			<point x="380" y="261"/>
			<point x="434" y="304"/>
			<point x="509" y="356" type="curve"/>
			<point x="509" y="410" type="line"/>
			<point x="412" y="341"/>
			<point x="344" y="290"/>
			<point x="270" y="208" type="curve"/>
		</contour>
		<contour>
			<point x="494" y="0" type="line"/>
			<point x="536" y="0" type="line"/>
			<point x="536" y="519" type="line"/>
			<point x="494" y="519" type="line"/>
		</contour>
	</outline>
</glyph>
<glyph name="dvLvocal" format="1">
	<advance width="686"/>
	<outline>
		<contour>
			<point x="-10" y="550" type="line"/>
			<point x="-10" y="510" type="line"/>
			<point x="632" y="510" type="line"/>
			<point x="632" y="550" type="line"/>
		</contour>
		<contour>
			<point x="494" y="358" type="line"/>
			<point x="536" y="358" type="line"/>
			<point x="536" y="519" type="line"/>
			<point x="494" y="519" type="line"/>
		</contour>
		<contour>
			<point x="594" y="240" type="curve" smooth="yes"/>
			<point x="594" y="157"/>
			<point x="540" y="100"/>
			<point x="463" y="42" type="curve"/>
			<point x="493" y="12" type="line"/>
			<point x="570" y="65"/>
			<point x="640" y="141"/>
			<point x="640" y="228" type="curve" smooth="yes"/>
			<point x="640" y="316"/>
			<point x="576" y="388"/>
			<point x="499" y="388" type="curve" smooth="yes"/>
			<point x="388" y="388"/>
			<point x="310" y="291"/>
			<point x="270" y="208" type="curve"/>
			<point x="272" y="200" type="line"/>
			<point x="310" y="184" type="line"/>
			<point x="358" y="282"/>
			<point x="416" y="343"/>
			<point x="509" y="343" type="curve" smooth="yes"/>
			<point x="555" y="343"/>
			<point x="594" y="296"/>
		</contour>
		<contour>
			<point x="199" y="388" type="curve" smooth="yes"/>
			<point x="104" y="388"/>
			<point x="45" y="325"/>
			<point x="45" y="242" type="curve" smooth="yes"/>
			<point x="45" y="122"/>
			<point x="165" y="32"/>
			<point x="291" y="-26" type="curve"/>
			<point x="308" y="8" type="line"/>
			<point x="212" y="48"/>
			<point x="88" y="128"/>
			<point x="88" y="229" type="curve" smooth="yes"/>
			<point x="88" y="302"/>
			<point x="132" y="343"/>
			<point x="209" y="343" type="curve" smooth="yes"/>
			<point x="259" y="343"/>
			<point x="299" y="325"/>
			<point x="335" y="262" type="curve"/>
			<point x="364" y="281" type="line"/>
			<point x="325" y="351"/>
			<point x="284" y="388"/>
		</contour>
	</outline>
</glyph>
<glyph name="dvLlla" format="1">
  <advance width="686"/>
  <outline>
    <contour>
      <point x="513" y="329" type="curve" smooth="yes"/>
      <point x="563" y="329"/>
      <point x="611" y="285"/>
      <point x="611" y="228" type="curve" smooth="yes"/>
      <point x="611" y="163"/>
      <point x="577" y="108"/>
      <point x="487" y="108" type="curve" smooth="yes"/>
      <point x="443" y="108"/>
      <point x="389" y="129"/>
      <point x="337" y="188" type="curve"/>
      <point x="327" y="147" type="line"/>
      <point x="380" y="88"/>
      <point x="434" y="61"/>
      <point x="498" y="61" type="curve" smooth="yes"/>
      <point x="598" y="61"/>
      <point x="652" y="139"/>
      <point x="652" y="222" type="curve" smooth="yes"/>
      <point x="652" y="304"/>
      <point x="580" y="376"/>
      <point x="502" y="376" type="curve" smooth="yes"/>
      <point x="314" y="376"/>
      <point x="355" y="108"/>
      <point x="184" y="108" type="curve" smooth="yes"/>
      <point x="134" y="108"/>
      <point x="86" y="152"/>
      <point x="86" y="209" type="curve" smooth="yes"/>
      <point x="86" y="274"/>
      <point x="120" y="329"/>
      <point x="211" y="329" type="curve" smooth="yes"/>
      <point x="255" y="329"/>
      <point x="308" y="308"/>
      <point x="361" y="249" type="curve"/>
      <point x="370" y="290" type="line"/>
      <point x="318" y="349"/>
      <point x="263" y="376"/>
      <point x="199" y="376" type="curve" smooth="yes"/>
      <point x="100" y="376"/>
      <point x="45" y="298"/>
      <point x="45" y="215" type="curve" smooth="yes"/>
      <point x="45" y="133"/>
      <point x="118" y="61"/>
      <point x="196" y="61" type="curve" smooth="yes"/>
      <point x="384" y="61"/>
      <point x="342" y="329"/>
    </contour>
    <contour>
      <point x="-10" y="550" type="line"/>
      <point x="-10" y="510" type="line"/>
      <point x="558" y="510" type="line"/>
      <point x="558" y="550" type="line"/>
    </contour>
    <contour>
      <point x="496" y="356" type="line"/>
      <point x="538" y="356" type="line"/>
      <point x="538" y="519" type="line"/>
      <point x="496" y="519" type="line"/>
    </contour>
    <contour>
      <point x="342" y="41" type="curve" smooth="yes"/>
      <point x="320" y="41"/>
      <point x="303" y="21"/>
      <point x="303" y="-1" type="curve" smooth="yes"/>
      <point x="303" y="-23"/>
      <point x="318" y="-42"/>
      <point x="340" y="-42" type="curve" smooth="yes"/>
      <point x="365" y="-42"/>
      <point x="380" y="-23"/>
      <point x="380" y="-1" type="curve" smooth="yes"/>
      <point x="380" y="22"/>
      <point x="365" y="41"/>
    </contour>
  </outline>
</glyph>
<glyph name="dvM" format="1">
	<advance width="312"/>
	<outline>
		<contour>
			<point x="-30" y="550" type="line"/>
			<point x="-30" y="524" type="line"/>
			<point x="420" y="524" type="line"/>
			<point x="420" y="550" type="line"/>
		</contour>
		<contour>
			<point x="120" y="535" type="line"/>
			<point x="120" y="270" type="line"/>
			<point x="111" y="270"/>
			<point x="94" y="272"/>
			<point x="77" y="269" type="curve" smooth="yes"/>
			<point x="58" y="266"/>
			<point x="46" y="252"/>
			<point x="46" y="232" type="curve" smooth="yes"/>
			<point x="46" y="203"/>
			<point x="95" y="152"/>
			<point x="124" y="152" type="curve" smooth="yes"/>
			<point x="144" y="152"/>
			<point x="158" y="165"/>
			<point x="158" y="184" type="curve" smooth="yes"/>
			<point x="158" y="195"/>
			<point x="156" y="216"/>
			<point x="156" y="236" type="curve"/>
			<point x="420" y="236" type="line"/>
			<point x="420" y="264" type="line"/>
			<point x="148" y="264" type="line"/>
			<point x="148" y="535" type="line"/>
		</contour>
	</outline>
</glyph>
<glyph name="dvMa" format="1">
  <advance width="526"/>
  <outline>
    <contour>
      <point x="-30" y="550" type="line"/>
      <point x="-30" y="510" type="line"/>
      <point x="536" y="510" type="line"/>
      <point x="536" y="550" type="line"/>
    </contour>
    <contour>
      <point x="114" y="533" type="line"/>
      <point x="114" y="270" type="line"/>
      <point x="105" y="270"/>
      <point x="90" y="270"/>
      <point x="73" y="267" type="curve" smooth="yes"/>
      <point x="54" y="264"/>
      <point x="42" y="250"/>
      <point x="42" y="230" type="curve" smooth="yes"/>
      <point x="42" y="197"/>
      <point x="104" y="138"/>
      <point x="129" y="138" type="curve" smooth="yes"/>
      <point x="145" y="138"/>
      <point x="166" y="151"/>
      <point x="166" y="170" type="curve" smooth="yes"/>
      <point x="166" y="181"/>
      <point x="164" y="202"/>
      <point x="164" y="222" type="curve"/>
      <point x="399" y="222" type="line"/>
      <point x="399" y="267" type="line"/>
      <point x="158" y="267" type="line"/>
      <point x="158" y="533" type="line"/>
    </contour>
    <contour>
      <point x="398" y="0" type="line"/>
      <point x="440" y="0" type="line"/>
      <point x="440" y="529" type="line"/>
      <point x="398" y="529" type="line"/>
    </contour>
  </outline>
</glyph>
<glyph name="dvNa" format="1">
	<advance width="502"/>
	<outline>
		<contour>
			<point x="-10" y="550" type="line"/>
			<point x="-10" y="510" type="line"/>
			<point x="512" y="510" type="line"/>
			<point x="512" y="550" type="line"/>
		</contour>
		<contour>
			<point x="406" y="320" type="line"/>
			<point x="75" y="320" type="line" smooth="yes"/>
			<point x="56" y="320"/>
			<point x="45" y="306"/>
			<point x="45" y="282" type="curve" smooth="yes"/>
			<point x="45" y="244"/>
			<point x="107" y="167"/>
			<point x="138" y="167" type="curve" smooth="yes"/>
			<point x="154" y="167"/>
			<point x="169" y="180"/>
			<point x="169" y="199" type="curve" smooth="yes"/>
			<point x="169" y="211"/>
			<point x="167" y="246"/>
			<point x="164" y="276" type="curve"/>
			<point x="406" y="276" type="line"/>
		</contour>
		<contour>
			<point x="374" y="0" type="line"/>
			<point x="416" y="0" type="line"/>
			<point x="416" y="529" type="line"/>
			<point x="374" y="529" type="line"/>
		</contour>
	</outline>
</glyph>
<glyph name="dvNna.copy_1" format="1">
	<advance width="564"/>
	<outline>
		<contour>
			<point x="-10" y="550" type="line"/>
			<point x="-10" y="510" type="line"/>
			<point x="574" y="510" type="line"/>
			<point x="574" y="550" type="line"/>
		</contour>
		<contour>
			<point x="172" y="170" type="curve" smooth="yes"/>
			<point x="251" y="170"/>
			<point x="287" y="228"/>
			<point x="287" y="329" type="curve" smooth="yes"/>
			<point x="287" y="520" type="line"/>
			<point x="244" y="520" type="line"/>
			<point x="244" y="342" type="line" smooth="yes"/>
			<point x="244" y="244"/>
			<point x="219" y="212"/>
			<point x="166" y="212" type="curve" smooth="yes"/>
			<point x="125" y="212"/>
			<point x="90" y="240"/>
			<point x="90" y="329" type="curve" smooth="yes"/>
			<point x="90" y="522" type="line"/>
			<point x="47" y="522" type="line"/>
			<point x="47" y="342" type="line" smooth="yes"/>
			<point x="47" y="212"/>
			<point x="98" y="170"/>
		</contour>
		<contour>
			<point x="436" y="0" type="line"/>
			<point x="478" y="0" type="line"/>
			<point x="478" y="529" type="line"/>
			<point x="436" y="529" type="line"/>
		</contour>
	</outline>
</glyph>
<glyph name="dvNna" format="1">
	<advance width="564"/>
	<outline>
		<contour>
			<point x="-10" y="550" type="line"/>
			<point x="-10" y="522" type="line"/>
			<point x="574" y="522" type="line"/>
			<point x="574" y="550" type="line"/>
		</contour>
		<contour>
			<point x="172" y="170" type="curve" smooth="yes"/>
			<point x="251" y="170"/>
			<point x="287" y="228"/>
			<point x="287" y="329" type="curve" smooth="yes"/>
			<point x="287" y="532" type="line"/>
			<point x="256" y="532" type="line"/>
			<point x="256" y="342" type="line" smooth="yes"/>
			<point x="256" y="244"/>
			<point x="227.153846154" y="212"/>
			<point x="166" y="212" type="curve" smooth="yes"/>
			<point x="118.526315789" y="212"/>
			<point x="78" y="240"/>
			<point x="78" y="329" type="curve" smooth="yes"/>
			<point x="78" y="534" type="line"/>
			<point x="47" y="534" type="line"/>
			<point x="47" y="342" type="line" smooth="yes"/>
			<point x="47" y="212"/>
			<point x="98" y="170"/>
		</contour>
		<contour>
			<point x="442" y="0" type="line"/>
			<point x="472" y="0" type="line"/>
			<point x="472" y="541" type="line"/>
			<point x="442" y="541" type="line"/>
		</contour>
	</outline>
</glyph>
<glyph name="dvNukta" format="1">
	<outline>
		<contour>
			<point x="2" y="41" type="curve" smooth="yes"/>
			<point x="-20" y="41"/>
			<point x="-37" y="21"/>
			<point x="-37" y="-1" type="curve" smooth="yes"/>
			<point x="-37" y="-23"/>
			<point x="-22" y="-42"/>
			<point x="0" y="-42" type="curve" smooth="yes"/>
			<point x="25" y="-42"/>
			<point x="40" y="-23"/>
			<point x="40" y="-1" type="curve" smooth="yes"/>
			<point x="40" y="22"/>
			<point x="25" y="41"/>
		</contour>
	</outline>
</glyph>
<glyph name="dvNya" format="1">
	<advance width="698"/>
	<outline>
		<contour>
			<point x="-10" y="550" type="line"/>
			<point x="-10" y="510" type="line"/>
			<point x="708" y="510" type="line"/>
			<point x="708" y="550" type="line"/>
		</contour>
		<contour>
			<point x="305" y="107" type="curve" smooth="yes"/>
			<point x="396" y="107"/>
			<point x="453" y="171"/>
			<point x="453" y="246" type="curve" smooth="yes"/>
			<point x="453" y="339"/>
			<point x="382" y="404"/>
			<point x="290" y="404" type="curve" smooth="yes"/>
			<point x="260" y="404"/>
			<point x="226" y="396"/>
			<point x="193" y="372" type="curve"/>
			<point x="215" y="330" type="line"/>
			<point x="244" y="351"/>
			<point x="279" y="357"/>
			<point x="293" y="357" type="curve" smooth="yes"/>
			<point x="358" y="357"/>
			<point x="412" y="320"/>
			<point x="412" y="261" type="curve" smooth="yes"/>
			<point x="412" y="204"/>
			<point x="376" y="154"/>
			<point x="294" y="154" type="curve" smooth="yes"/>
			<point x="196" y="154"/>
			<point x="114" y="256"/>
			<point x="56" y="392" type="curve"/>
			<point x="23" y="375" type="line"/>
			<point x="84" y="238"/>
			<point x="172" y="107"/>
		</contour>
		<contour>
			<point x="594" y="286" type="line"/>
			<point x="566" y="243"/>
			<point x="533" y="241"/>
			<point x="507" y="241" type="curve" smooth="yes"/>
			<point x="492" y="241"/>
			<point x="470" y="246"/>
			<point x="447" y="259" type="curve"/>
			<point x="426" y="235" type="line"/>
			<point x="466" y="206"/>
			<point x="495" y="197"/>
			<point x="525" y="197" type="curve" smooth="yes"/>
			<point x="560" y="197"/>
			<point x="583" y="208"/>
			<point x="594" y="217" type="curve"/>
		</contour>
		<contour>
			<point x="570" y="0" type="line"/>
			<point x="612" y="0" type="line"/>
			<point x="612" y="529" type="line"/>
			<point x="570" y="529" type="line"/>
		</contour>
	</outline>
</glyph>
<glyph name="dvOcandra" format="1">
	<advance width="912"/>
	<outline>
		<contour>
			<point x="786" y="610" type="curve" smooth="yes"/>
			<point x="859" y="610"/>
			<point x="900" y="655"/>
			<point x="900" y="702" type="curve" smooth="yes"/>
			<point x="900" y="723"/>
			<point x="900" y="732"/>
			<point x="892" y="758" type="curve"/>
			<point x="850" y="748" type="line"/>
			<point x="854" y="730"/>
			<point x="856" y="720"/>
			<point x="856" y="706" type="curve" smooth="yes"/>
			<point x="856" y="677"/>
			<point x="836" y="652"/>
			<point x="784" y="652" type="curve" smooth="yes"/>
			<point x="750" y="652"/>
			<point x="712" y="665"/>
			<point x="668" y="726" type="curve"/>
			<point x="638" y="704" type="line"/>
			<point x="690" y="628"/>
			<point x="744" y="610"/>
		</contour>
		<component base="dvAa"/>
	</outline>
</glyph>
<glyph name="dvOcandrasign" format="1">
	<advance width="212"/>
	<outline>
		<contour>
			<point x="88" y="610" type="curve" smooth="yes"/>
			<point x="161" y="610"/>
			<point x="202" y="655"/>
			<point x="202" y="702" type="curve" smooth="yes"/>
			<point x="202" y="723"/>
			<point x="202" y="732"/>
			<point x="194" y="758" type="curve"/>
			<point x="152" y="748" type="line"/>
			<point x="156" y="730"/>
			<point x="158" y="720"/>
			<point x="158" y="706" type="curve" smooth="yes"/>
			<point x="158" y="677"/>
			<point x="138" y="652"/>
			<point x="86" y="652" type="curve" smooth="yes"/>
			<point x="52" y="652"/>
			<point x="14" y="665"/>
			<point x="-30" y="726" type="curve"/>
			<point x="-60" y="704" type="line"/>
			<point x="-8" y="628"/>
			<point x="46" y="610"/>
		</contour>
		<component base="dvAasign"/>
	</outline>
</glyph>
<glyph name="dvOcandra" format="1">
  <advance width="912"/>
  <outline>
    <contour>
      <point x="280" y="345" type="curve"/>
      <point x="290" y="308" type="line"/>
      <point x="354" y="298"/>
      <point x="402" y="244"/>
      <point x="402" y="188" type="curve" smooth="yes"/>
      <point x="402" y="132"/>
      <point x="368" y="88"/>
      <point x="288" y="88" type="curve" smooth="yes"/>
      <point x="192" y="88"/>
      <point x="124" y="172"/>
      <point x="66" y="318" type="curve"/>
      <point x="32" y="301" type="line"/>
      <point x="93" y="154"/>
      <point x="162" y="42"/>
      <point x="292" y="42" type="curve" smooth="yes"/>
      <point x="388" y="42"/>
      <point x="446" y="105"/>
      <point x="446" y="184" type="curve" smooth="yes"/>
      <point x="446" y="276"/>
      <point x="357" y="336"/>
    </contour>
    <contour>
      <point x="575" y="336" type="line"/>
      <point x="558" y="296"/>
      <point x="508" y="290"/>
      <point x="482" y="290" type="curve" smooth="yes"/>
      <point x="434" y="290"/>
      <point x="399" y="300"/>
      <point x="335" y="333" type="curve"/>
      <point x="319" y="306" type="line"/>
      <point x="386" y="267"/>
      <point x="448" y="245"/>
      <point x="491" y="245" type="curve" smooth="yes"/>
      <point x="526" y="245"/>
      <point x="556" y="253"/>
      <point x="575" y="266" type="curve"/>
    </contour>
    <contour>
      <point x="246" y="291" type="line"/>
      <point x="342" y="315"/>
      <point x="398" y="369"/>
      <point x="398" y="434" type="curve" smooth="yes"/>
      <point x="398" y="508"/>
      <point x="346" y="560"/>
      <point x="268" y="560" type="curve" smooth="yes"/>
      <point x="216" y="560"/>
      <point x="183" y="544"/>
      <point x="146" y="522" type="curve"/>
      <point x="170" y="480" type="line"/>
      <point x="200" y="501"/>
      <point x="227" y="514"/>
      <point x="272" y="514" type="curve" smooth="yes"/>
      <point x="328" y="514"/>
      <point x="354" y="482"/>
      <point x="354" y="438" type="curve" smooth="yes"/>
      <point x="354" y="382"/>
      <point x="316" y="355"/>
      <point x="230" y="334" type="curve"/>
    </contour>
    <contour>
      <point x="568" y="0" type="line"/>
      <point x="610" y="0" type="line"/>
      <point x="610" y="529" type="line"/>
      <point x="568" y="529" type="line"/>
    </contour>
    <contour>
      <point x="472" y="550" type="line"/>
      <point x="472" y="510" type="line"/>
      <point x="706" y="510" type="line"/>
      <point x="706" y="550" type="line"/>
    </contour>
    <contour>
      <point x="784" y="0" type="line"/>
      <point x="826" y="0" type="line"/>
      <point x="826" y="529" type="line"/>
      <point x="784" y="529" type="line"/>
    </contour>
    <contour>
      <point x="688" y="550" type="line"/>
      <point x="688" y="510" type="line"/>
      <point x="922" y="510" type="line"/>
      <point x="922" y="550" type="line"/>
    </contour>
    <contour>
      <point x="786" y="610" type="curve" smooth="yes"/>
      <point x="859" y="610"/>
      <point x="900" y="655"/>
      <point x="900" y="702" type="curve" smooth="yes"/>
      <point x="900" y="723"/>
      <point x="900" y="732"/>
      <point x="892" y="758" type="curve"/>
      <point x="850" y="748" type="line"/>
      <point x="854" y="730"/>
      <point x="856" y="720"/>
      <point x="856" y="706" type="curve" smooth="yes"/>
      <point x="856" y="677"/>
      <point x="836" y="652"/>
      <point x="784" y="652" type="curve" smooth="yes"/>
      <point x="750" y="652"/>
      <point x="712" y="665"/>
      <point x="668" y="726" type="curve"/>
      <point x="638" y="704" type="line"/>
      <point x="690" y="628"/>
      <point x="744" y="610"/>
    </contour>
  </outline>
</glyph>
<glyph name="dvOcandrasign" format="1">
  <advance width="214"/>
  <outline>
    <contour>
      <point x="86" y="0" type="line"/>
      <point x="128" y="0" type="line"/>
      <point x="128" y="529" type="line"/>
      <point x="86" y="529" type="line"/>
    </contour>
    <contour>
      <point x="-10" y="550" type="line"/>
      <point x="-10" y="510" type="line"/>
      <point x="224" y="510" type="line"/>
      <point x="224" y="550" type="line"/>
    </contour>
    <contour>
      <point x="88" y="610" type="curve" smooth="yes"/>
      <point x="161" y="610"/>
      <point x="202" y="655"/>
      <point x="202" y="702" type="curve" smooth="yes"/>
      <point x="202" y="723"/>
      <point x="202" y="732"/>
      <point x="194" y="758" type="curve"/>
      <point x="152" y="748" type="line"/>
      <point x="156" y="730"/>
      <point x="158" y="720"/>
      <point x="158" y="706" type="curve" smooth="yes"/>
      <point x="158" y="677"/>
      <point x="138" y="652"/>
      <point x="86" y="652" type="curve" smooth="yes"/>
      <point x="52" y="652"/>
      <point x="14" y="665"/>
      <point x="-30" y="726" type="curve"/>
      <point x="-60" y="704" type="line"/>
      <point x="-8" y="628"/>
      <point x="46" y="610"/>
    </contour>
  </outline>
</glyph>
<glyph name="dvOm" format="1">
  <advance width="940"/>
  <outline>
    <contour>
      <point x="542" y="293" type="line"/>
      <point x="576" y="215"/>
      <point x="653" y="180"/>
      <point x="699" y="180" type="curve" smooth="yes"/>
      <point x="781" y="180"/>
      <point x="832" y="248"/>
      <point x="832" y="316" type="curve" smooth="yes"/>
      <point x="832" y="387"/>
      <point x="778" y="450"/>
      <point x="701" y="450" type="curve" smooth="yes"/>
      <point x="565" y="450"/>
      <point x="544" y="272"/>
      <point x="450" y="272" type="curve" smooth="yes"/>
      <point x="420" y="272"/>
      <point x="405" y="284"/>
      <point x="361" y="310" type="curve"/>
      <point x="405" y="251" type="line"/>
      <point x="432" y="234"/>
      <point x="443" y="230"/>
      <point x="464" y="230" type="curve" smooth="yes"/>
      <point x="576" y="230"/>
      <point x="581" y="404"/>
      <point x="703" y="404" type="curve" smooth="yes"/>
      <point x="756" y="404"/>
      <point x="790" y="367"/>
      <point x="790" y="320" type="curve" smooth="yes"/>
      <point x="790" y="260"/>
      <point x="761" y="220"/>
      <point x="696" y="220" type="curve" smooth="yes"/>
      <point x="649" y="220"/>
      <point x="599" y="261"/>
      <point x="571" y="312" type="curve"/>
    </contour>
    <contour>
      <point x="550" y="500" type="curve" smooth="yes"/>
      <point x="623" y="500"/>
      <point x="668" y="550"/>
      <point x="668" y="602" type="curve" smooth="yes"/>
      <point x="668" y="631"/>
      <point x="666" y="646"/>
      <point x="656" y="678" type="curve"/>
      <point x="614" y="668" type="line"/>
      <point x="622" y="642"/>
      <point x="624" y="626"/>
      <point x="624" y="606" type="curve" smooth="yes"/>
      <point x="624" y="572"/>
      <point x="600" y="542"/>
      <point x="548" y="542" type="curve" smooth="yes"/>
      <point x="502" y="542"/>
      <point x="456" y="561"/>
      <point x="396" y="646" type="curve"/>
      <point x="366" y="624" type="line"/>
      <point x="434" y="524"/>
      <point x="496" y="500"/>
    </contour>
    <contour>
      <point x="280" y="335" type="curve"/>
      <point x="290" y="298" type="line"/>
      <point x="354" y="289"/>
      <point x="402" y="239"/>
      <point x="402" y="188" type="curve" smooth="yes"/>
      <point x="402" y="132"/>
      <point x="368" y="88"/>
      <point x="288" y="88" type="curve" smooth="yes"/>
      <point x="206" y="88"/>
      <point x="149" y="145"/>
      <point x="105" y="229" type="curve" smooth="yes"/>
      <point x="90" y="260"/>
      <point x="81" y="278"/>
      <point x="66" y="318" type="curve"/>
      <point x="32" y="301" type="line"/>
      <point x="93" y="154"/>
      <point x="162" y="42"/>
      <point x="292" y="42" type="curve" smooth="yes"/>
      <point x="388" y="42"/>
      <point x="446" y="105"/>
      <point x="446" y="184" type="curve" smooth="yes"/>
      <point x="446" y="270"/>
      <point x="361" y="327"/>
    </contour>
    <contour>
      <point x="246" y="281" type="line"/>
      <point x="342" y="305"/>
      <point x="398" y="359"/>
      <point x="398" y="423" type="curve" smooth="yes"/>
      <point x="398" y="497"/>
      <point x="342" y="550"/>
      <point x="268" y="550" type="curve" smooth="yes"/>
      <point x="216" y="550"/>
      <point x="183" y="534"/>
      <point x="146" y="512" type="curve"/>
      <point x="170" y="470" type="line"/>
      <point x="200" y="491"/>
      <point x="227" y="504"/>
      <point x="272" y="504" type="curve" smooth="yes"/>
      <point x="328" y="504"/>
      <point x="354" y="471"/>
      <point x="354" y="427" type="curve" smooth="yes"/>
      <point x="354" y="371"/>
      <point x="316" y="345"/>
      <point x="230" y="324" type="curve"/>
    </contour>
    <contour>
      <point x="522" y="701" type="curve" smooth="yes"/>
      <point x="500" y="701"/>
      <point x="483" y="681"/>
      <point x="483" y="659" type="curve" smooth="yes"/>
      <point x="483" y="637"/>
      <point x="498" y="618"/>
      <point x="520" y="618" type="curve" smooth="yes"/>
      <point x="545" y="618"/>
      <point x="560" y="637"/>
      <point x="560" y="659" type="curve" smooth="yes"/>
      <point x="560" y="682"/>
      <point x="545" y="701"/>
    </contour>
  </outline>
</glyph>
<glyph name="dvOshort" format="1">
  <advance width="912"/>
  <outline>
    <contour>
      <point x="280" y="345" type="curve"/>
      <point x="290" y="308" type="line"/>
      <point x="354" y="298"/>
      <point x="402" y="244"/>
      <point x="402" y="188" type="curve" smooth="yes"/>
      <point x="402" y="132"/>
      <point x="368" y="88"/>
      <point x="288" y="88" type="curve" smooth="yes"/>
      <point x="192" y="88"/>
      <point x="124" y="172"/>
      <point x="66" y="318" type="curve"/>
      <point x="32" y="301" type="line"/>
      <point x="93" y="154"/>
      <point x="162" y="42"/>
      <point x="292" y="42" type="curve" smooth="yes"/>
      <point x="388" y="42"/>
      <point x="446" y="105"/>
      <point x="446" y="184" type="curve" smooth="yes"/>
      <point x="446" y="276"/>
      <point x="357" y="336"/>
    </contour>
    <contour>
      <point x="575" y="336" type="line"/>
      <point x="558" y="296"/>
      <point x="508" y="290"/>
      <point x="482" y="290" type="curve" smooth="yes"/>
      <point x="434" y="290"/>
      <point x="399" y="300"/>
      <point x="335" y="333" type="curve"/>
      <point x="319" y="306" type="line"/>
      <point x="386" y="267"/>
      <point x="448" y="245"/>
      <point x="491" y="245" type="curve" smooth="yes"/>
      <point x="526" y="245"/>
      <point x="556" y="253"/>
      <point x="575" y="266" type="curve"/>
    </contour>
    <contour>
      <point x="246" y="291" type="line"/>
      <point x="342" y="315"/>
      <point x="398" y="369"/>
      <point x="398" y="434" type="curve" smooth="yes"/>
      <point x="398" y="508"/>
      <point x="346" y="560"/>
      <point x="268" y="560" type="curve" smooth="yes"/>
      <point x="216" y="560"/>
      <point x="183" y="544"/>
      <point x="146" y="522" type="curve"/>
      <point x="170" y="480" type="line"/>
      <point x="200" y="501"/>
      <point x="227" y="514"/>
      <point x="272" y="514" type="curve" smooth="yes"/>
      <point x="328" y="514"/>
      <point x="354" y="482"/>
      <point x="354" y="438" type="curve" smooth="yes"/>
      <point x="354" y="382"/>
      <point x="316" y="355"/>
      <point x="230" y="334" type="curve"/>
    </contour>
    <contour>
      <point x="568" y="0" type="line"/>
      <point x="610" y="0" type="line"/>
      <point x="610" y="529" type="line"/>
      <point x="568" y="529" type="line"/>
    </contour>
    <contour>
      <point x="472" y="550" type="line"/>
      <point x="472" y="510" type="line"/>
      <point x="706" y="510" type="line"/>
      <point x="706" y="550" type="line"/>
    </contour>
    <contour>
      <point x="784" y="0" type="line"/>
      <point x="826" y="0" type="line"/>
      <point x="826" y="529" type="line"/>
      <point x="784" y="529" type="line"/>
    </contour>
    <contour>
      <point x="688" y="550" type="line"/>
      <point x="688" y="510" type="line"/>
      <point x="922" y="510" type="line"/>
      <point x="922" y="550" type="line"/>
    </contour>
    <contour>
      <point x="417" y="762" type="line"/>
      <point x="436" y="716"/>
      <point x="468" y="672"/>
      <point x="520" y="672" type="curve" smooth="yes"/>
      <point x="566" y="672"/>
      <point x="604" y="690"/>
      <point x="636" y="690" type="curve" smooth="yes"/>
      <point x="684" y="690"/>
      <point x="724" y="658"/>
      <point x="771" y="549" type="curve"/>
      <point x="812" y="549" type="line"/>
      <point x="748" y="686"/>
      <point x="710" y="736"/>
      <point x="632" y="736" type="curve" smooth="yes"/>
      <point x="598" y="736"/>
      <point x="561" y="718"/>
      <point x="518" y="718" type="curve" smooth="yes"/>
      <point x="491" y="718"/>
      <point x="472" y="729"/>
      <point x="446" y="779" type="curve"/>
    </contour>
  </outline>
</glyph>
<glyph name="dvOshortsign" format="1">
  <advance width="214"/>
  <outline>
    <contour>
      <point x="86" y="0" type="line"/>
      <point x="128" y="0" type="line"/>
      <point x="128" y="529" type="line"/>
      <point x="86" y="529" type="line"/>
    </contour>
    <contour>
      <point x="-10" y="550" type="line"/>
      <point x="-10" y="510" type="line"/>
      <point x="224" y="510" type="line"/>
      <point x="224" y="550" type="line"/>
    </contour>
    <contour>
      <point x="-281" y="762" type="line"/>
      <point x="-262" y="716"/>
      <point x="-230" y="672"/>
      <point x="-178" y="672" type="curve" smooth="yes"/>
      <point x="-132" y="672"/>
      <point x="-94" y="690"/>
      <point x="-62" y="690" type="curve" smooth="yes"/>
      <point x="-14" y="690"/>
      <point x="26" y="658"/>
      <point x="73" y="549" type="curve"/>
      <point x="114" y="549" type="line"/>
      <point x="50" y="686"/>
      <point x="12" y="736"/>
      <point x="-66" y="736" type="curve" smooth="yes"/>
      <point x="-100" y="736"/>
      <point x="-137" y="718"/>
      <point x="-180" y="718" type="curve" smooth="yes"/>
      <point x="-207" y="718"/>
      <point x="-226" y="729"/>
      <point x="-252" y="779" type="curve"/>
    </contour>
  </outline>
</glyph>
<glyph name="dvOsign" format="1">
  <advance width="214"/>
  <outline>
    <contour>
      <point x="86" y="0" type="line"/>
      <point x="128" y="0" type="line"/>
      <point x="128" y="529" type="line"/>
      <point x="86" y="529" type="line"/>
    </contour>
    <contour>
      <point x="-10" y="550" type="line"/>
      <point x="-10" y="510" type="line"/>
      <point x="224" y="510" type="line"/>
      <point x="224" y="550" type="line"/>
    </contour>
    <contour>
      <point x="-182" y="790" type="curve" smooth="yes"/>
      <point x="-210" y="790"/>
      <point x="-227" y="784"/>
      <point x="-259" y="771" type="curve"/>
      <point x="-237" y="725" type="line"/>
      <point x="-210" y="736"/>
      <point x="-190" y="742"/>
      <point x="-169" y="742" type="curve" smooth="yes"/>
      <point x="-73" y="742"/>
      <point x="28" y="606"/>
      <point x="73" y="548" type="curve"/>
      <point x="120" y="548" type="line"/>
      <point x="30" y="662"/>
      <point x="-58" y="790"/>
    </contour>
  </outline>
</glyph>
<glyph name="dvPa" format="1">
	<advance width="488"/>
	<outline>
		<contour>
			<point x="-20" y="550" type="line"/>
			<point x="-20" y="510" type="line"/>
			<point x="498" y="510" type="line"/>
			<point x="498" y="550" type="line"/>
		</contour>
		<contour>
			<point x="242" y="208" type="curve" smooth="yes"/>
			<point x="168" y="208"/>
			<point x="108" y="250"/>
			<point x="108" y="395" type="curve" smooth="yes"/>
			<point x="108" y="522" type="line"/>
			<point x="65" y="522" type="line"/>
			<point x="65" y="408" type="line" smooth="yes"/>
			<point x="65" y="229"/>
			<point x="138" y="166"/>
			<point x="248" y="166" type="curve" smooth="yes"/>
			<point x="284" y="166"/>
			<point x="332" y="180"/>
			<point x="360" y="209" type="curve"/>
			<point x="360" y="316" type="line"/>
			<point x="360" y="298"/>
			<point x="359" y="283"/>
			<point x="354" y="270" type="curve" smooth="yes"/>
			<point x="340" y="232"/>
			<point x="292" y="208"/>
		</contour>
		<contour>
			<point x="360" y="0" type="line"/>
			<point x="402" y="0" type="line"/>
			<point x="402" y="529" type="line"/>
			<point x="360" y="529" type="line"/>
		</contour>
	</outline>
</glyph>
<glyph name="dvReph" format="1">
	<outline>
		<contour>
			<point x="-204" y="666" type="curve" smooth="yes"/>
			<point x="-204" y="620"/>
			<point x="-165" y="570"/>
			<point x="-128" y="541" type="curve"/>
			<point x="-68" y="541" type="line"/>
			<point x="-135" y="581"/>
			<point x="-162" y="627"/>
			<point x="-162" y="662" type="curve" smooth="yes"/>
			<point x="-162" y="694"/>
			<point x="-143" y="712"/>
			<point x="-110" y="712" type="curve" smooth="yes"/>
			<point x="-82" y="712"/>
			<point x="-68" y="696"/>
			<point x="-40" y="669" type="curve"/>
			<point x="-16" y="694" type="line"/>
			<point x="-48" y="732"/>
			<point x="-72" y="758"/>
			<point x="-116" y="758" type="curve" smooth="yes"/>
			<point x="-161" y="758"/>
			<point x="-204" y="729"/>
		</contour>
	</outline>
</glyph>
<glyph name="dvRha" format="1">
	<advance width="440"/>
	<outline>
		<contour>
			<point x="259" y="25" type="line"/>
			<point x="374" y="25"/>
			<point x="438" y="114"/>
			<point x="438" y="167" type="curve" smooth="yes"/>
			<point x="438" y="230"/>
			<point x="402" y="264"/>
			<point x="350" y="264" type="curve" smooth="yes"/>
			<point x="304" y="264"/>
			<point x="265" y="226"/>
			<point x="265" y="175" type="curve" smooth="yes"/>
			<point x="265" y="142"/>
			<point x="277" y="113"/>
			<point x="302" y="89" type="curve"/>
			<point x="325" y="103" type="line"/>
			<point x="315" y="121"/>
			<point x="308" y="139"/>
			<point x="308" y="160" type="curve" smooth="yes"/>
			<point x="308" y="189"/>
			<point x="323" y="217"/>
			<point x="355" y="217" type="curve" smooth="yes"/>
			<point x="382" y="217"/>
			<point x="395" y="202"/>
			<point x="395" y="172" type="curve" smooth="yes"/>
			<point x="395" y="98"/>
			<point x="301" y="70"/>
			<point x="246" y="70" type="curve"/>
		</contour>
		<contour>
			<point x="-10" y="550" type="line"/>
			<point x="-10" y="510" type="line"/>
			<point x="450" y="510" type="line"/>
			<point x="450" y="550" type="line"/>
		</contour>
		<contour>
			<point x="240" y="26" type="curve" smooth="yes"/>
			<point x="285" y="26"/>
			<point x="336" y="38"/>
			<point x="388" y="70" type="curve"/>
			<point x="368" y="108" type="line"/>
			<point x="320" y="80"/>
			<point x="287" y="70"/>
			<point x="236" y="70" type="curve" smooth="yes"/>
			<point x="158" y="70"/>
			<point x="84" y="124"/>
			<point x="84" y="212" type="curve" smooth="yes"/>
			<point x="84" y="278"/>
			<point x="126" y="358"/>
			<point x="242" y="358" type="curve" smooth="yes"/>
			<point x="358" y="358" type="line"/>
			<point x="358" y="520" type="line"/>
			<point x="316" y="520" type="line"/>
			<point x="316" y="402" type="line"/>
			<point x="236" y="402" type="line" smooth="yes"/>
			<point x="112" y="402"/>
			<point x="40" y="316"/>
			<point x="40" y="216" type="curve" smooth="yes"/>
			<point x="40" y="86"/>
			<point x="138" y="26"/>
		</contour>
		<contour>
			<point x="232" y="-39" type="curve" smooth="yes"/>
			<point x="210" y="-39"/>
			<point x="193" y="-59"/>
			<point x="193" y="-81" type="curve" smooth="yes"/>
			<point x="193" y="-103"/>
			<point x="208" y="-122"/>
			<point x="230" y="-122" type="curve" smooth="yes"/>
			<point x="255" y="-122"/>
			<point x="270" y="-103"/>
			<point x="270" y="-81" type="curve" smooth="yes"/>
			<point x="270" y="-58"/>
			<point x="255" y="-39"/>
		</contour>
	</outline>
</glyph>
<glyph name="dvRvocal" format="1">
	<advance width="771"/>
	<outline>
		<contour>
			<point x="301" y="11" type="line"/>
			<point x="376" y="-13" type="line"/>
			<point x="385" y="-11" type="line"/>
			<point x="385" y="240" type="line"/>
			<point x="429" y="220" type="line"/>
			<point x="441" y="216"/>
			<point x="453" y="214"/>
			<point x="466" y="214" type="curve" smooth="yes"/>
			<point x="514" y="214"/>
			<point x="565" y="238"/>
			<point x="589" y="287" type="curve"/>
			<point x="610" y="275"/>
			<point x="624" y="265"/>
			<point x="624" y="246" type="curve" smooth="yes"/>
			<point x="624" y="179"/>
			<point x="493" y="164"/>
			<point x="493" y="90" type="curve" smooth="yes"/>
			<point x="493" y="68"/>
			<point x="494" y="55"/>
			<point x="509" y="32" type="curve"/>
			<point x="523" y="15"/>
			<point x="528" y="8"/>
			<point x="547" y="-6" type="curve"/>
			<point x="583" y="-28"/>
			<point x="600" y="-30"/>
			<point x="630" y="-30" type="curve" smooth="yes"/>
			<point x="666" y="-30"/>
			<point x="703" y="-13"/>
			<point x="728" y="19" type="curve"/>
			<point x="692" y="70" type="line"/>
			<point x="682" y="71" type="line"/>
			<point x="658" y="45"/>
			<point x="626" y="32"/>
			<point x="600" y="32" type="curve" smooth="yes"/>
			<point x="585" y="32"/>
			<point x="570" y="34"/>
			<point x="560" y="38" type="curve"/>
			<point x="555" y="49"/>
			<point x="555" y="55"/>
			<point x="555" y="64" type="curve" smooth="yes"/>
			<point x="555" y="115"/>
			<point x="696" y="156"/>
			<point x="696" y="220" type="curve" smooth="yes"/>
			<point x="696" y="285"/>
			<point x="648" y="293"/>
			<point x="602" y="329" type="curve"/>
			<point x="603" y="337"/>
			<point x="603" y="344"/>
			<point x="603" y="352" type="curve" smooth="yes"/>
			<point x="603" y="397"/>
			<point x="588" y="430"/>
			<point x="555" y="453" type="curve"/>
			<point x="538" y="455" type="line"/>
			<point x="523" y="447"/>
			<point x="478" y="415"/>
			<point x="470" y="395" type="curve"/>
			<point x="485" y="361"/>
			<point x="507" y="339"/>
			<point x="529" y="322" type="curve"/>
			<point x="512" y="290"/>
			<point x="476" y="275"/>
			<point x="435" y="275" type="curve" smooth="yes"/>
			<point x="418" y="275"/>
			<point x="402" y="277"/>
			<point x="385" y="282" type="curve"/>
			<point x="385" y="515" type="line"/>
			<point x="780" y="515" type="line"/>
			<point x="784" y="525" type="line"/>
			<point x="739" y="583" type="line"/>
			<point x="-38" y="583" type="line"/>
			<point x="-41" y="572" type="line"/>
			<point x="4" y="515" type="line"/>
			<point x="301" y="515" type="line"/>
			<point x="301" y="333" type="line"/>
			<point x="280" y="349"/>
			<point x="263" y="364"/>
			<point x="243" y="378" type="curve"/>
			<point x="209" y="389"/>
			<point x="177" y="397"/>
			<point x="146" y="397" type="curve" smooth="yes"/>
			<point x="102" y="397"/>
			<point x="58" y="383"/>
			<point x="11" y="350" type="curve"/>
			<point x="13" y="342" type="line"/>
			<point x="62" y="282" type="line"/>
			<point x="87" y="305"/>
			<point x="128" y="319"/>
			<point x="173" y="319" type="curve" smooth="yes"/>
			<point x="213" y="319"/>
			<point x="258" y="308"/>
			<point x="300" y="284" type="curve"/>
			<point x="213" y="236"/>
			<point x="143" y="180"/>
			<point x="77" y="100" type="curve"/>
			<point x="79" y="92" type="line"/>
			<point x="141" y="47" type="line"/>
			<point x="200" y="118"/>
			<point x="245" y="159"/>
			<point x="301" y="196" type="curve"/>
		</contour>
	</outline>
</glyph>
<glyph name="dvRra" format="1">
  <advance width="320"/>
  <outline>
    <contour>
      <point x="180" y="510" type="line"/>
      <point x="192" y="470"/>
      <point x="194" y="441"/>
      <point x="194" y="415" type="curve" smooth="yes"/>
      <point x="194" y="338"/>
      <point x="166" y="290"/>
      <point x="137" y="270" type="curve"/>
      <point x="127" y="299"/>
      <point x="108" y="312"/>
      <point x="90" y="312" type="curve" smooth="yes"/>
      <point x="67" y="312"/>
      <point x="46" y="289"/>
      <point x="46" y="253" type="curve" smooth="yes"/>
      <point x="46" y="232"/>
      <point x="52" y="212"/>
      <point x="59" y="197" type="curve" smooth="yes"/>
      <point x="99" y="116"/>
      <point x="168" y="38"/>
      <point x="219" y="-8" type="curve"/>
      <point x="248" y="23" type="line"/>
      <point x="196" y="65"/>
      <point x="134" y="126"/>
      <point x="102" y="192" type="curve"/>
      <point x="174" y="234"/>
      <point x="232" y="300"/>
      <point x="232" y="400" type="curve" smooth="yes"/>
      <point x="232" y="437"/>
      <point x="229" y="468"/>
      <point x="221" y="510" type="curve"/>
    </contour>
    <contour>
      <point x="-10" y="550" type="line"/>
      <point x="-10" y="510" type="line"/>
      <point x="328" y="510" type="line"/>
      <point x="328" y="550" type="line"/>
    </contour>
    <contour>
      <point x="67" y="21" type="curve" smooth="yes"/>
      <point x="45" y="21"/>
      <point x="28" y="1"/>
      <point x="28" y="-21" type="curve" smooth="yes"/>
      <point x="28" y="-43"/>
      <point x="43" y="-62"/>
      <point x="65" y="-62" type="curve" smooth="yes"/>
      <point x="90" y="-62"/>
      <point x="105" y="-43"/>
      <point x="105" y="-21" type="curve" smooth="yes"/>
      <point x="105" y="2"/>
      <point x="90" y="21"/>
    </contour>
  </outline>
</glyph>
<glyph name="dvRrvocalsign" format="1">
  <advance width="0"/>
  <outline>
    <contour>
      <point x="58" y="-224" type="line"/>
      <point x="48" y="-222" type="line"/>
      <point x="16" y="-250"/>
      <point x="-8" y="-266"/>
      <point x="-46" y="-266" type="curve" smooth="yes"/>
      <point x="-62" y="-266"/>
      <point x="-72" y="-266"/>
      <point x="-86" y="-260" type="curve"/>
      <point x="-94" y="-248"/>
      <point x="-96" y="-240"/>
      <point x="-96" y="-230" type="curve" smooth="yes"/>
      <point x="-96" y="-198"/>
      <point x="-80" y="-174"/>
      <point x="-20" y="-152" type="curve"/>
      <point x="-16" y="-140" type="line"/>
      <point x="-48" y="-88" type="line"/>
      <point x="-83" y="-99"/>
      <point x="-112" y="-118"/>
      <point x="-134" y="-140" type="curve"/>
      <point x="-158" y="-140"/>
      <point x="-166" y="-138"/>
      <point x="-186" y="-132" type="curve"/>
      <point x="-194" y="-120"/>
      <point x="-196" y="-110"/>
      <point x="-196" y="-100" type="curve" smooth="yes"/>
      <point x="-196" y="-66"/>
      <point x="-178" y="-34"/>
      <point x="-108" y="-20" type="curve"/>
      <point x="-100" y="-12" type="line"/>
      <point x="-142" y="52" type="line"/>
      <point x="-216" y="32"/>
      <point x="-266" y="-14"/>
      <point x="-266" y="-68" type="curve" smooth="yes"/>
      <point x="-266" y="-92"/>
      <point x="-262" y="-114"/>
      <point x="-246" y="-138" type="curve"/>
      <point x="-223" y="-167"/>
      <point x="-196" y="-180"/>
      <point x="-160" y="-193" type="curve"/>
      <point x="-160" y="-248"/>
      <point x="-140" y="-276"/>
      <point x="-102" y="-304" type="curve"/>
      <point x="-64" y="-328"/>
      <point x="-46" y="-330"/>
      <point x="-14" y="-330" type="curve" smooth="yes"/>
      <point x="24" y="-330"/>
      <point x="60" y="-312"/>
      <point x="90" y="-278" type="curve"/>
    </contour>
  </outline>
</glyph>
<glyph name="dvRvocalsign" format="1">
  <advance width="0"/>
  <outline>
    <contour>
      <point x="-104" y="34" type="line"/>
      <point x="-160" y="26"/>
      <point x="-208" y="-14"/>
      <point x="-208" y="-66" type="curve" smooth="yes"/>
      <point x="-208" y="-117"/>
      <point x="-169" y="-156"/>
      <point x="-106" y="-156" type="curve" smooth="yes"/>
      <point x="-81" y="-156"/>
      <point x="-54" y="-152"/>
      <point x="-24" y="-134" type="curve"/>
      <point x="-46" y="-96" type="line"/>
      <point x="-66" y="-112"/>
      <point x="-87" y="-116"/>
      <point x="-106" y="-116" type="curve" smooth="yes"/>
      <point x="-144" y="-116"/>
      <point x="-170" y="-100"/>
      <point x="-170" y="-66" type="curve" smooth="yes"/>
      <point x="-170" y="-36"/>
      <point x="-138" y="-4"/>
      <point x="-86" y="0" type="curve"/>
    </contour>
  </outline>
</glyph>
<glyph name="dvSha.MAR" format="1">
	<advance width="590"/>
	<outline>
		<contour>
			<point x="101" y="166" type="curve"/>
			<point x="130" y="100"/>
			<point x="198" y="24"/>
			<point x="249" y="-3" type="curve"/>
			<point x="274" y="38" type="line"/>
			<point x="227" y="63"/>
			<point x="178" y="106"/>
			<point x="156" y="154" type="curve" smooth="yes"/>
			<point x="131" y="206"/>
			<point x="110" y="256"/>
			<point x="69" y="256" type="curve" smooth="yes"/>
			<point x="47" y="256"/>
			<point x="28" y="237"/>
			<point x="28" y="216" type="curve" smooth="yes"/>
			<point x="28" y="168"/>
			<point x="68" y="134"/>
			<point x="140" y="134" type="curve" smooth="yes"/>
			<point x="214" y="134"/>
			<point x="328" y="224"/>
			<point x="328" y="392" type="curve" smooth="yes"/>
			<point x="328" y="490"/>
			<point x="271" y="552"/>
			<point x="194" y="552" type="curve" smooth="yes"/>
			<point x="141" y="552"/>
			<point x="92" y="503"/>
			<point x="92" y="439" type="curve" smooth="yes"/>
			<point x="92" y="348"/>
			<point x="162" y="298"/>
			<point x="262" y="250" type="curve"/>
			<point x="276" y="284" type="line"/>
			<point x="182" y="326"/>
			<point x="132" y="376"/>
			<point x="132" y="434" type="curve" smooth="yes"/>
			<point x="132" y="486"/>
			<point x="162" y="512"/>
			<point x="200" y="512" type="curve" smooth="yes"/>
			<point x="248" y="512"/>
			<point x="286" y="466"/>
			<point x="286" y="396" type="curve" smooth="yes"/>
			<point x="286" y="244"/>
			<point x="212" y="176"/>
		</contour>
	</outline>
</glyph>
<glyph name="dvSsa" format="1">
	<advance width="498"/>
	<outline>
		<contour>
			<point x="399" y="259" type="line"/>
			<point x="128" y="520" type="line"/>
			<point x="95" y="499" type="line"/>
			<point x="368" y="239" type="line"/>
		</contour>
		<contour>
			<point x="-10" y="550" type="line"/>
			<point x="-10" y="510" type="line"/>
			<point x="508" y="510" type="line"/>
			<point x="508" y="550" type="line"/>
		</contour>
		<contour>
			<point x="252" y="208" type="curve" smooth="yes"/>
			<point x="178" y="208"/>
			<point x="118" y="250"/>
			<point x="118" y="395" type="curve" smooth="yes"/>
			<point x="118" y="522" type="line"/>
			<point x="75" y="522" type="line"/>
			<point x="75" y="408" type="line" smooth="yes"/>
			<point x="75" y="229"/>
			<point x="148" y="166"/>
			<point x="258" y="166" type="curve" smooth="yes"/>
			<point x="294" y="166"/>
			<point x="342" y="180"/>
			<point x="370" y="209" type="curve"/>
			<point x="370" y="316" type="line"/>
			<point x="370" y="298"/>
			<point x="369" y="283"/>
			<point x="364" y="270" type="curve" smooth="yes"/>
			<point x="350" y="232"/>
			<point x="302" y="208"/>
		</contour>
		<contour>
			<point x="370" y="0" type="line"/>
			<point x="412" y="0" type="line"/>
			<point x="412" y="529" type="line"/>
			<point x="370" y="529" type="line"/>
		</contour>
	</outline>
</glyph>
<glyph name="dvSa" format="1">
  <advance width="574"/>
  <outline>
    <contour>
      <point x="110" y="550" type="line"/>
      <point x="110" y="510" type="line"/>
      <point x="488" y="510" type="line"/>
      <point x="488" y="550" type="line"/>
    </contour>
    <contour>
      <point x="462" y="288" type="line"/>
      <point x="426" y="246"/>
      <point x="361" y="246"/>
      <point x="329" y="246" type="curve" smooth="yes"/>
      <point x="283" y="246"/>
      <point x="257" y="250"/>
      <point x="179" y="282" type="curve"/>
      <point x="144" y="254" type="line"/>
      <point x="229" y="214"/>
      <point x="281" y="200"/>
      <point x="348" y="200" type="curve" smooth="yes"/>
      <point x="394" y="200"/>
      <point x="436" y="206"/>
      <point x="462" y="227" type="curve"/>
    </contour>
    <contour>
      <point x="180" y="510" type="line"/>
      <point x="192" y="470"/>
      <point x="194" y="441"/>
      <point x="194" y="415" type="curve" smooth="yes"/>
      <point x="194" y="338"/>
      <point x="166" y="290"/>
      <point x="137" y="270" type="curve"/>
      <point x="127" y="299"/>
      <point x="108" y="312"/>
      <point x="90" y="312" type="curve" smooth="yes"/>
      <point x="67" y="312"/>
      <point x="46" y="289"/>
      <point x="46" y="253" type="curve" smooth="yes"/>
      <point x="46" y="232"/>
      <point x="52" y="212"/>
      <point x="59" y="197" type="curve" smooth="yes"/>
      <point x="99" y="116"/>
      <point x="168" y="38"/>
      <point x="219" y="-8" type="curve"/>
      <point x="248" y="23" type="line"/>
      <point x="196" y="65"/>
      <point x="134" y="126"/>
      <point x="102" y="192" type="curve"/>
      <point x="174" y="234"/>
      <point x="232" y="300"/>
      <point x="232" y="400" type="curve" smooth="yes"/>
      <point x="232" y="437"/>
      <point x="229" y="468"/>
      <point x="221" y="510" type="curve"/>
    </contour>
    <contour>
      <point x="-10" y="550" type="line"/>
      <point x="-10" y="510" type="line"/>
      <point x="328" y="510" type="line"/>
      <point x="328" y="550" type="line"/>
    </contour>
    <contour>
      <point x="446" y="0" type="line"/>
      <point x="488" y="0" type="line"/>
      <point x="488" y="529" type="line"/>
      <point x="446" y="529" type="line"/>
    </contour>
    <contour>
      <point x="350" y="550" type="line"/>
      <point x="350" y="510" type="line"/>
      <point x="584" y="510" type="line"/>
      <point x="584" y="550" type="line"/>
    </contour>
  </outline>
</glyph>
<glyph name="dvTa" format="1">
  <advance width="508"/>
  <outline>
    <contour>
      <point x="-10" y="550" type="line"/>
      <point x="-10" y="510" type="line"/>
      <point x="518" y="510" type="line"/>
      <point x="518" y="550" type="line"/>
    </contour>
    <contour>
      <point x="385" y="359" type="line"/>
      <point x="316" y="362"/>
      <point x="254" y="364"/>
      <point x="232" y="364" type="curve" smooth="yes"/>
      <point x="85" y="364"/>
      <point x="45" y="314"/>
      <point x="45" y="234" type="curve" smooth="yes"/>
      <point x="45" y="137"/>
      <point x="124" y="36"/>
      <point x="166" y="-16" type="curve"/>
      <point x="202" y="13" type="line"/>
      <point x="150" y="58"/>
      <point x="88" y="146"/>
      <point x="88" y="221" type="curve" smooth="yes"/>
      <point x="88" y="278"/>
      <point x="116" y="315"/>
      <point x="223" y="315" type="curve" smooth="yes"/>
      <point x="251" y="315"/>
      <point x="316" y="315"/>
      <point x="385" y="309" type="curve"/>
    </contour>
    <contour>
      <point x="380" y="0" type="line"/>
      <point x="422" y="0" type="line"/>
      <point x="422" y="529" type="line"/>
      <point x="380" y="529" type="line"/>
    </contour>
  </outline>
</glyph>
<glyph name="dvTtha" format="1">
  <advance width="498"/>
  <outline>
    <contour>
      <point x="-10" y="550" type="line"/>
      <point x="-10" y="510" type="line"/>
      <point x="508" y="510" type="line"/>
      <point x="508" y="550" type="line"/>
    </contour>
    <contour>
      <point x="240" y="26" type="curve" smooth="yes"/>
      <point x="368" y="26"/>
      <point x="440" y="120"/>
      <point x="440" y="206" type="curve" smooth="yes"/>
      <point x="440" y="303"/>
      <point x="396" y="350"/>
      <point x="331" y="402" type="curve"/>
      <point x="305" y="362" type="line"/>
      <point x="372" y="320"/>
      <point x="396" y="276"/>
      <point x="396" y="210" type="curve" smooth="yes"/>
      <point x="396" y="149"/>
      <point x="350" y="70"/>
      <point x="236" y="70" type="curve" smooth="yes"/>
      <point x="158" y="70"/>
      <point x="84" y="124"/>
      <point x="84" y="212" type="curve" smooth="yes"/>
      <point x="84" y="278"/>
      <point x="126" y="358"/>
      <point x="242" y="358" type="curve" smooth="yes"/>
      <point x="348" y="358" type="line"/>
      <point x="348" y="520" type="line"/>
      <point x="306" y="520" type="line"/>
      <point x="306" y="402" type="line"/>
      <point x="236" y="402" type="line" smooth="yes"/>
      <point x="112" y="402"/>
      <point x="40" y="316"/>
      <point x="40" y="216" type="curve" smooth="yes"/>
      <point x="40" y="86"/>
      <point x="138" y="26"/>
    </contour>
  </outline>
</glyph>
<glyph name="dvU" format="1">
	<advance width="508"/>
	<outline>
		<contour>
			<point x="280" y="345" type="curve"/>
			<point x="290" y="308" type="line"/>
			<point x="354" y="298"/>
			<point x="402" y="244"/>
			<point x="402" y="188" type="curve" smooth="yes"/>
			<point x="402" y="132"/>
			<point x="368" y="88"/>
			<point x="288" y="88" type="curve" smooth="yes"/>
			<point x="192" y="88"/>
			<point x="124" y="172"/>
			<point x="66" y="318" type="curve"/>
			<point x="32" y="301" type="line"/>
			<point x="93" y="154"/>
			<point x="162" y="42"/>
			<point x="292" y="42" type="curve" smooth="yes"/>
			<point x="388" y="42"/>
			<point x="446" y="105"/>
			<point x="446" y="184" type="curve" smooth="yes"/>
			<point x="446" y="276"/>
			<point x="357" y="336"/>
		</contour>
		<contour>
			<point x="246" y="291" type="line"/>
			<point x="342" y="315"/>
			<point x="398" y="369"/>
			<point x="398" y="434" type="curve" smooth="yes"/>
			<point x="398" y="496"/>
			<point x="356" y="540"/>
			<point x="309" y="540" type="curve"/>
			<point x="272" y="514" type="line"/>
			<point x="328" y="514"/>
			<point x="354" y="482"/>
			<point x="354" y="438" type="curve" smooth="yes"/>
			<point x="354" y="382"/>
			<point x="316" y="355"/>
			<point x="230" y="334" type="curve"/>
		</contour>
		<contour>
			<point x="-10" y="550" type="line"/>
			<point x="-10" y="510" type="line"/>
			<point x="518" y="510" type="line"/>
			<point x="518" y="550" type="line"/>
		</contour>
	</outline>
</glyph>
<glyph name="dvUusign" format="1">
	<outline>
		<contour>
			<point x="86" y="-186" type="line"/>
			<point x="11" y="-72"/>
			<point x="-65" y="-48"/>
			<point x="-126" y="-48" type="curve" smooth="yes"/>
			<point x="-186" y="-48"/>
			<point x="-244" y="-82"/>
			<point x="-244" y="-146" type="curve" smooth="yes"/>
			<point x="-244" y="-198"/>
			<point x="-201" y="-246"/>
			<point x="-138" y="-246" type="curve" smooth="yes"/>
			<point x="-110" y="-246"/>
			<point x="-84" y="-242"/>
			<point x="-50" y="-224" type="curve"/>
			<point x="-72" y="-186" type="line"/>
			<point x="-95" y="-202"/>
			<point x="-116" y="-206"/>
			<point x="-138" y="-206" type="curve" smooth="yes"/>
			<point x="-176" y="-206"/>
			<point x="-206" y="-184"/>
			<point x="-206" y="-150" type="curve" smooth="yes"/>
			<point x="-206" y="-120"/>
			<point x="-176" y="-90"/>
			<point x="-124" y="-90" type="curve" smooth="yes"/>
			<point x="-54" y="-90"/>
			<point x="-3" y="-122"/>
			<point x="58" y="-210" type="curve"/>
		</contour>
	</outline>
</glyph>
<glyph name="dvUsign" format="1">
  <advance width="0"/>
  <outline>
    <contour>
      <point x="-344" y="-108" type="line"/>
      <point x="-269" y="-222"/>
      <point x="-193" y="-246"/>
      <point x="-132" y="-246" type="curve" smooth="yes"/>
      <point x="-72" y="-246"/>
      <point x="-14" y="-212"/>
      <point x="-14" y="-148" type="curve" smooth="yes"/>
      <point x="-14" y="-96"/>
      <point x="-57" y="-48"/>
      <point x="-120" y="-48" type="curve" smooth="yes"/>
      <point x="-148" y="-48"/>
      <point x="-174" y="-52"/>
      <point x="-208" y="-70" type="curve"/>
      <point x="-186" y="-108" type="line"/>
      <point x="-163" y="-92"/>
      <point x="-142" y="-88"/>
      <point x="-120" y="-88" type="curve" smooth="yes"/>
      <point x="-82" y="-88"/>
      <point x="-52" y="-110"/>
      <point x="-52" y="-144" type="curve" smooth="yes"/>
      <point x="-52" y="-174"/>
      <point x="-82" y="-204"/>
      <point x="-134" y="-204" type="curve" smooth="yes"/>
      <point x="-204" y="-204"/>
      <point x="-255" y="-172"/>
      <point x="-316" y="-84" type="curve"/>
    </contour>
  </outline>
</glyph>
<glyph name="dvVirama" format="1">
	<outline>
		<contour>
			<point x="-132" y="-45" type="curve" smooth="yes"/>
			<point x="-156" y="-45"/>
			<point x="-176" y="-50"/>
			<point x="-203" y="-63" type="curve"/>
			<point x="-181" y="-109" type="line"/>
			<point x="-158" y="-96"/>
			<point x="-135" y="-92"/>
			<point x="-119" y="-92" type="curve" smooth="yes"/>
			<point x="-73" y="-92"/>
			<point x="-14" y="-142"/>
			<point x="49" y="-206" type="curve"/>
			<point x="76" y="-180" type="line"/>
			<point x="5" y="-110"/>
			<point x="-58" y="-45"/>
		</contour>
	</outline>
</glyph>
<glyph name="dvVisarga" format="1">
  <advance width="174"/>
  <outline>
    <contour>
      <point x="94" y="361" type="curve" smooth="yes"/>
      <point x="119" y="361"/>
      <point x="135" y="381"/>
      <point x="135" y="405" type="curve" smooth="yes"/>
      <point x="135" y="431"/>
      <point x="119" y="451"/>
      <point x="95" y="451" type="curve" smooth="yes"/>
      <point x="71" y="451"/>
      <point x="54" y="431"/>
      <point x="54" y="405" type="curve"/>
      <point x="53" y="381"/>
      <point x="70" y="361"/>
    </contour>
    <contour>
      <point x="94" y="-11" type="curve" smooth="yes"/>
      <point x="119" y="-11"/>
      <point x="135" y="10"/>
      <point x="135" y="34" type="curve" smooth="yes"/>
      <point x="135" y="60"/>
      <point x="119" y="79"/>
      <point x="95" y="79" type="curve" smooth="yes"/>
      <point x="71" y="79"/>
      <point x="54" y="60"/>
      <point x="54" y="34" type="curve"/>
      <point x="53" y="10"/>
      <point x="70" y="-11"/>
    </contour>
  </outline>
</glyph>
<glyph name="dvY" format="1">
	<advance width="270"/>
	<outline>
		<contour>
			<point x="-10" y="550" type="line"/>
			<point x="-10" y="524" type="line"/>
			<point x="376" y="524" type="line"/>
			<point x="376" y="550" type="line"/>
		</contour>
		<contour>
			<point x="243" y="128" type="curve" smooth="yes"/>
			<point x="270" y="128"/>
			<point x="326" y="140"/>
			<point x="357" y="168" type="curve"/>
			<point x="357" y="273" type="line"/>
			<point x="357" y="255"/>
			<point x="355" y="242"/>
			<point x="351" y="229" type="curve"/>
			<point x="334" y="193"/>
			<point x="285" y="170"/>
			<point x="229" y="170" type="curve" smooth="yes"/>
			<point x="162" y="170"/>
			<point x="102" y="198"/>
			<point x="73" y="261" type="curve"/>
			<point x="141" y="292"/>
			<point x="180" y="337"/>
			<point x="180" y="405" type="curve" smooth="yes"/>
			<point x="180" y="442"/>
			<point x="171" y="478"/>
			<point x="144" y="510" type="curve"/>
			<point x="104" y="510" type="line"/>
			<point x="136" y="469"/>
			<point x="143" y="442"/>
			<point x="143" y="416" type="curve" smooth="yes"/>
			<point x="143" y="344"/>
			<point x="105" y="313"/>
			<point x="32" y="284" type="curve"/>
			<point x="28" y="269" type="line"/>
			<point x="70" y="177"/>
			<point x="132" y="128"/>
		</contour>
	</outline>
</glyph>
<glyph name="dvYa" format="1">
	<advance width="484"/>
	<outline>
		<contour>
			<point x="-10" y="550" type="line"/>
			<point x="-10" y="510" type="line"/>
			<point x="494" y="510" type="line"/>
			<point x="494" y="550" type="line"/>
		</contour>
		<contour>
			<point x="243" y="128" type="curve" smooth="yes"/>
			<point x="270" y="128"/>
			<point x="326" y="140"/>
			<point x="357" y="168" type="curve"/>
			<point x="357" y="273" type="line"/>
			<point x="357" y="255"/>
			<point x="355" y="242"/>
			<point x="351" y="229" type="curve"/>
			<point x="334" y="193"/>
			<point x="285" y="170"/>
			<point x="229" y="170" type="curve" smooth="yes"/>
			<point x="162" y="170"/>
			<point x="102" y="198"/>
			<point x="73" y="261" type="curve"/>
			<point x="141" y="292"/>
			<point x="180" y="337"/>
			<point x="180" y="405" type="curve" smooth="yes"/>
			<point x="180" y="442"/>
			<point x="171" y="478"/>
			<point x="144" y="510" type="curve"/>
			<point x="104" y="510" type="line"/>
			<point x="136" y="469"/>
			<point x="143" y="442"/>
			<point x="143" y="416" type="curve" smooth="yes"/>
			<point x="143" y="344"/>
			<point x="105" y="313"/>
			<point x="32" y="284" type="curve"/>
			<point x="28" y="269" type="line"/>
			<point x="70" y="177"/>
			<point x="132" y="128"/>
		</contour>
		<contour>
			<point x="356" y="0" type="line"/>
			<point x="398" y="0" type="line"/>
			<point x="398" y="519" type="line"/>
			<point x="356" y="519" type="line"/>
		</contour>
	</outline>
</glyph>
<glyph name="dvZa" format="1">
  <advance width="622"/>
  <outline>
    <contour>
      <point x="-10" y="550" type="line"/>
      <point x="-10" y="510" type="line"/>
      <point x="632" y="510" type="line"/>
      <point x="632" y="550" type="line"/>
    </contour>
    <contour>
      <point x="502" y="381" type="line"/>
      <point x="238" y="381" type="line"/>
      <point x="238" y="338" type="line"/>
      <point x="502" y="338" type="line"/>
    </contour>
    <contour>
      <point x="251" y="98" type="curve" smooth="yes"/>
      <point x="338" y="98"/>
      <point x="397" y="154"/>
      <point x="397" y="223" type="curve" smooth="yes"/>
      <point x="397" y="304"/>
      <point x="342" y="357"/>
      <point x="280" y="375" type="curve"/>
      <point x="274" y="347" type="line"/>
      <point x="329" y="330"/>
      <point x="355" y="285"/>
      <point x="355" y="238" type="curve" smooth="yes"/>
      <point x="355" y="187"/>
      <point x="320" y="144"/>
      <point x="248" y="144" type="curve" smooth="yes"/>
      <point x="148" y="144"/>
      <point x="82" y="250"/>
      <point x="49" y="423" type="curve"/>
      <point x="13" y="413" type="line"/>
      <point x="48" y="225"/>
      <point x="128" y="98"/>
    </contour>
    <contour>
      <point x="494" y="0" type="line"/>
      <point x="536" y="0" type="line"/>
      <point x="536" y="529" type="line"/>
      <point x="494" y="529" type="line"/>
    </contour>
    <contour>
      <point x="342" y="41" type="curve" smooth="yes"/>
      <point x="320" y="41"/>
      <point x="303" y="21"/>
      <point x="303" y="-1" type="curve" smooth="yes"/>
      <point x="303" y="-23"/>
      <point x="318" y="-42"/>
      <point x="340" y="-42" type="curve" smooth="yes"/>
      <point x="365" y="-42"/>
      <point x="380" y="-23"/>
      <point x="380" y="-1" type="curve" smooth="yes"/>
      <point x="380" y="22"/>
      <point x="365" y="41"/>
    </contour>
  </outline>
</glyph>
<glyph name="ringbelowcmb" format="1">
	<outline>
		<component base="ringcmb" yOffset="-804"/>
		<contour>
			<point name="_belowLC" x="0" y="-22" type="move"/>
		</contour>
	</outline>
</glyph>
<glyph name="svastiright" format="1">
  <advance width="941"/>
  <outline>
    <contour>
      <point x="146" y="-70" type="line"/>
      <point x="510" y="-70" type="line"/>
      <point x="510" y="212" type="line"/>
      <point x="714" y="212" type="line"/>
      <point x="714" y="-73" type="line"/>
      <point x="792" y="-73" type="line"/>
      <point x="792" y="290" type="line"/>
      <point x="510" y="290" type="line"/>
      <point x="510" y="494" type="line"/>
      <point x="795" y="494" type="line"/>
      <point x="795" y="572" type="line"/>
      <point x="432" y="572" type="line"/>
      <point x="432" y="290" type="line"/>
      <point x="228" y="290" type="line"/>
      <point x="228" y="575" type="line"/>
      <point x="149" y="575" type="line"/>
      <point x="149" y="212" type="line"/>
      <point x="432" y="212" type="line"/>
      <point x="432" y="8" type="line"/>
      <point x="146" y="8" type="line"/>
    </contour>
  </outline>
</glyph>
